<?xml version="1.0" standalone="no"?>
<!DOCTYPE svg PUBLIC "-//W3C//DTD SVG 1.1//EN" "http://www.w3.org/Graphics/SVG/1.1/DTD/svg11.dtd" >
<svg xmlns="http://www.w3.org/2000/svg" xmlns:xlink="http://www.w3.org/1999/xlink" version="1.1">
<metadata>
Created by FontForge 20161116 at Thu Mar 22 15:40:19 1928
 By Jimmy Warting
(c)1991,1993 Tilde Ltd. AG Fonts collection.
</metadata>
<defs>
<font id="AGLettericaCondensed-Bold" horiz-adv-x="500" >
  <font-face 
    font-family="AGLettericaCondensed"
    font-weight="700"
    font-stretch="normal"
    units-per-em="1000"
    panose-1="0 0 0 0 0 0 0 0 0 0"
    ascent="800"
    descent="-200"
    x-height="564"
    cap-height="750"
    bbox="-89 -198 1091 966"
    underline-thickness="58"
    underline-position="-119"
    unicode-range="U+0020-2122"
  />
<missing-glyph horiz-adv-x="800" 
d="M50 0v800h700v-800h-700zM700 50v700h-600v-700h600z" />
    <glyph glyph-name=".notdef" horiz-adv-x="800" 
d="M50 0v800h700v-800h-700zM700 50v700h-600v-700h600z" />
    <glyph glyph-name=".null" horiz-adv-x="0" 
 />
    <glyph glyph-name="nonmarkingreturn" horiz-adv-x="250" 
 />
    <glyph glyph-name="space" unicode=" " horiz-adv-x="250" 
 />
    <glyph glyph-name="exclam" unicode="!" horiz-adv-x="333" 
d="M101 540v210h130v-210v-21q0 -75 -6 -152l-15 -173h-85q0 40 -5 84.5t-10 88.5q-9 87 -9 173zM232 0h-130v132h130v-132z" />
    <glyph glyph-name="quotedbl" unicode="&#x22;" horiz-adv-x="333" 
d="M318 468h-119v271h119v-271zM135 468h-119v271h119v-271z" />
    <glyph glyph-name="numbersign" unicode="#" 
d="M445 331v-98h-86l-29 -233h-85l28 233h-72l-29 -233h-84l28 233h-85v98h98l11 92h-84v98h95l27 217h83l-26 -217h73l26 217h86l-27 -217h76v-98h-88l-11 -92h75zM296 423h-72l-11 -92h71z" />
    <glyph glyph-name="dollar" unicode="$" 
d="M278 287v-202q28 8 44 31t16 63q0 35 -20 67q-16 26 -40 41zM217 85v223q-116 77 -144.5 125t-28.5 121q0 72 39 120q45 55 131 66v63h68v-63q79 -9 121 -47t42 -91q0 -10 2 -35.5t2 -27.5h-116q0 46 -9 66q-12 26 -46 35v-199q86 -44 132 -96q55 -62 55 -135
q0 -104 -42.5 -157.5t-140.5 -67.5v-109h-68v106q-99 8 -142 75q-38 58 -38 165h120q0 -67 6 -86q12 -39 57 -51zM217 461v179q-26 -4 -39.5 -24.5t-13.5 -50.5q0 -34 16 -60q7 -12 37 -44z" />
    <glyph glyph-name="percent" unicode="%" horiz-adv-x="833" 
d="M184 736q98 0 132 -56q23 -38 23 -127q0 -91 -22 -127q-34 -56 -133 -56q-96 0 -130 56q-23 38 -23 127q0 90 22 127q33 56 131 56zM186 663q-39 0 -51 -30q-8 -20 -8 -80q0 -62 7 -80q12 -30 52 -30q39 0 50 30q7 19 7 80t-7 80q-11 30 -50 30zM280 -15h-71l336 765h70z
M649 366q98 0 132 -56q22 -37 22 -127t-22 -127q-33 -56 -132 -56q-96 0 -130 56q-23 38 -23 127q0 90 22 127q33 56 131 56zM650 293q-40 0 -51 -30q-7 -18 -7 -80q0 -61 7 -80q11 -30 51 -30q39 0 50 30q7 19 7 80t-7 80q-11 30 -50 30z" />
    <glyph glyph-name="ampersand" unicode="&#x26;" horiz-adv-x="667" 
d="M306 518q25 19 39 39q19 26 19 52t-14.5 42.5t-35.5 16.5q-20 0 -34 -12t-14 -37q0 -23 13.5 -50t26.5 -51zM363 425l94 -163q12 37 17.5 69.5t5.5 67.5h111q0 -67 -16.5 -131t-49.5 -121l90 -150h-150l-27 50q-38 -36 -79 -50.5t-96 -14.5q-86 0 -143 65t-57 161
q0 79 38 137q31 47 104 99q-28 49 -40 77q-19 46 -19 85q0 82 55 125q47 37 118 37q63 0 110.5 -42.5t47.5 -113.5q0 -59 -30 -106.5t-84 -80.5zM385 136l-121 207q-22 -8 -44 -39q-27 -38 -27 -77q0 -11 1 -17q7 -46 31 -78q28 -37 69 -37q24 0 47 11t44 30z" />
    <glyph glyph-name="quotesingle" unicode="'" horiz-adv-x="250" 
d="M185 468h-119v271h119v-271z" />
    <glyph glyph-name="parenleft" unicode="(" horiz-adv-x="333" 
d="M198 768h81q-49 -97 -70 -195q-25 -119 -25 -310q0 -139 20.5 -238.5t76.5 -222.5h-83q-83 142 -113 239q-33 108 -33 263q0 133 34.5 246t111.5 218z" />
    <glyph glyph-name="parenright" unicode=")" horiz-adv-x="333" 
d="M135 -198h-81q49 97 70 195q25 119 25 310q0 139 -20.5 238.5t-76.5 222.5h83q83 -142 114.5 -244.5t31.5 -257.5q0 -133 -34.5 -246t-111.5 -218z" />
    <glyph glyph-name="asterisk" unicode="*" 
d="M382 461l-66 -48l-54 77l-9 15l-12 -19l-54 -74l-66 47l55 76l11 14l-20 6l-88 28l24 76l89 -28l18 -6l-1 20v93h80v-93l-1 -18l21 7l86 29l27 -78l-90 -27q-12 -4 -18 -4l14 -18z" />
    <glyph glyph-name="plus" unicode="+" 
d="M195 304v188h110v-188h170v-110h-170v-194h-110v194h-169v110h169z" />
    <glyph glyph-name="comma" unicode="," horiz-adv-x="333" 
d="M101 -145v44q33 4 51.5 32t18.5 69h-70v132h132v-129q0 -131 -132 -148z" />
    <glyph glyph-name="hyphen" unicode="-" horiz-adv-x="333" 
d="M286 255h-238v115h238v-115z" />
    <glyph glyph-name="period" unicode="." horiz-adv-x="333" 
d="M233 0h-132v132h132v-132z" />
    <glyph glyph-name="slash" unicode="/" horiz-adv-x="278" 
d="M-11 -94l236 844h87l-236 -844h-87z" />
    <glyph glyph-name="zero" unicode="0" 
d="M188 538v-337q0 -58 16 -82t45 -24q31 0 47.5 23t16.5 83v337q0 58 -17 81.5t-47 23.5t-44 -21q-17 -25 -17 -84zM48 201v337q0 115 54 167q49 48 149 48t148 -47q54 -52 54 -168v-337q0 -114 -54 -167q-50 -49 -149 -49t-148 48q-54 53 -54 168z" />
    <glyph glyph-name="one" unicode="1" 
d="M213 0v520h-169v100q81 0 129 26q57 31 77 104h103v-750h-140z" />
    <glyph glyph-name="two" unicode="2" 
d="M442 0h-410q0 53 12 127q7 40 37 90q34 57 95 121l68 72q39 43 51 64q18 32 18 80q0 49 -17 69t-50 20q-24 0 -41 -8.5t-24 -28.5q-7 -16 -9 -36t-2 -43v-27h-131v21q0 122 50 175q54 57 163 57q90 0 145.5 -52.5t55.5 -141.5q0 -62 -21.5 -110t-67.5 -95l-110 -114
q-30 -31 -47 -57q-26 -40 -26 -73h261v-110z" />
    <glyph glyph-name="three" unicode="3" 
d="M171 346v110h11q29 0 44.5 1.5t32.5 9.5q26 12 36 39q7 19 7 53q0 84 -67 84q-27 0 -44 -11q-23 -15 -23 -48v-53h-131q0 109 44 163q48 59 153 59q103 0 155 -52q49 -49 49 -141q0 -57 -21 -97q-26 -50 -77 -58q52 -8 82.5 -54.5t30.5 -129.5q0 -114 -51 -173
q-54 -63 -167 -63q-127 0 -176 80q-31 51 -31 140v44h131v-32q0 -57 11 -82q18 -40 68 -40q60 0 71 66q4 24 4 76q0 26 -2.5 46t-13.5 33q-16 19 -49.5 24.5t-76.5 5.5z" />
    <glyph glyph-name="four" unicode="4" 
d="M126 262h140v304zM250 738h156v-476h64v-110h-64v-152h-140v152h-243v110z" />
    <glyph glyph-name="five" unicode="5" 
d="M168 345h-124l19 393h361v-110h-253l-9 -160q25 24 49 33t60 9q110 0 155 -85q32 -61 32 -174q0 -135 -44 -197q-49 -69 -163 -69q-124 0 -171 60q-43 55 -43 191h131q0 -69 6 -90q14 -51 64 -51q65 0 76 75q4 26 4 82q0 85 -19.5 116.5t-60.5 31.5q-27 0 -47 -15
t-23 -40z" />
    <glyph glyph-name="six" unicode="6" 
d="M182 260q0 -110 14 -137.5t49 -27.5h9q41 0 55 33q10 24 10 88v44v24q0 51 -10 75q-15 36 -58 36q-36 0 -52.5 -26.5t-16.5 -108.5zM42 270v180q0 173 53 241q48 62 164 62q88 0 134 -39q51 -43 51 -130h-130q0 27 -8 39q-13 20 -52 20q-46 0 -63 -42q-11 -27 -11 -79
v-19v-48q25 26 39 34q28 16 71 16q88 0 128.5 -58.5t40.5 -176.5q0 -149 -42 -213q-47 -72 -165 -72t-167 76q-43 67 -43 209z" />
    <glyph glyph-name="seven" unicode="7" 
d="M32 628v110h422v-101q-47 -83 -81.5 -174.5t-57.5 -182t-32 -142.5q-13 -73 -13 -138h-144q0 72 18 156q15 70 44 153q14 39 57 149q16 39 36 81q25 52 50 89h-299z" />
    <glyph glyph-name="eight" unicode="8" 
d="M181 208q0 -59 9 -80q14 -33 62 -33q45 0 59 39q9 25 9 86q0 69 -9 93q-15 39 -61 39q-38 0 -53.5 -23.5t-15.5 -120.5zM251 452q39 0 53 36q9 24 9 71q0 42 -16 63t-44 21q-38 0 -51.5 -25t-13.5 -69q0 -57 16 -77t47 -20zM146 406q-47 25 -66 59q-22 40 -22 115
q0 69 43 116q52 57 151 57q101 0 146 -48t45 -145q0 -63 -18 -96q-21 -38 -77 -61q62 -14 87 -59.5t25 -130.5q0 -119 -55 -176q-51 -52 -150 -52q-115 0 -164.5 55.5t-49.5 171.5q0 82 23.5 125t81.5 69z" />
    <glyph glyph-name="nine" unicode="9" 
d="M319 478q0 110 -14 137.5t-49 27.5h-9q-41 0 -55 -33q-10 -24 -10 -88v-44v-24q0 -51 10 -75q15 -36 58 -36q36 0 52.5 26.5t16.5 108.5zM459 468v-180q0 -174 -52 -241q-48 -62 -164 -62q-88 0 -134 39q-51 43 -51 130h130q0 -26 9 -39q14 -20 52 -20q45 0 62 41
q11 26 11 78v21v48q-25 -26 -39 -34q-28 -16 -71 -16q-88 0 -129 59t-41 176q0 148 43 213q48 72 165 72q119 0 167 -76q42 -66 42 -209z" />
    <glyph glyph-name="colon" unicode=":" horiz-adv-x="278" 
d="M205 424h-132v132h132v-132zM205 0h-132v132h132v-132z" />
    <glyph glyph-name="semicolon" unicode=";" horiz-adv-x="278" 
d="M73 -145v44q33 4 51.5 32t18.5 69h-70v132h132v-129q0 -131 -132 -148zM205 424h-132v132h132v-132z" />
    <glyph glyph-name="less" unicode="&#x3c;" 
d="M162 249l297 -162v-111l-417 225v99l417 227v-111z" />
    <glyph glyph-name="equal" unicode="=" 
d="M475 401v-110h-449v110h449zM475 206v-110h-449v110h449z" />
    <glyph glyph-name="greater" unicode="&#x3e;" 
d="M42 87l297 162l-297 167v111l417 -227v-99l-417 -225v111z" />
    <glyph glyph-name="question" unicode="?" 
d="M176 553h-124q0 215 195 215q89 0 141 -50t52 -136q0 -54 -15.5 -89.5t-53.5 -83.5l-69 -76q-20 -25 -28 -58.5t-8 -73.5h-117q0 34 3 69q0 60 36 110q49 56 75 91q16 22 25 40q14 29 14 72q0 81 -57 81q-42 0 -56 -23q-9 -17 -10.5 -41.5t-2.5 -46.5zM147 130h127v-130
h-127v130z" />
    <glyph glyph-name="at" unicode="@" horiz-adv-x="833" 
d="M654 148h96q-57 -78 -136 -122t-173 -44q-168 0 -285.5 113.5t-117.5 282.5q0 167 114.5 278.5t282.5 111.5q72 0 132 -19.5t113.5 -65t84 -104t30.5 -127.5q0 -65 -18.5 -117t-61.5 -96q-31 -32 -85 -60t-95 -28q-17 0 -30.5 13.5t-13.5 36.5q0 5 2 15q-67 -61 -125 -61
q-78 0 -123.5 52t-45.5 132q0 96 57 165q61 73 155 73q41 0 73 -14.5t54 -46.5l11 53h98l-53 -308q-3 -13 3.5 -18.5t16.5 -2.5q13 4 32.5 22.5t35.5 41.5q11 16 23 52.5t12 66.5q0 126 -78 198.5t-207 72.5q-138 0 -227 -89t-89 -227q0 -144 94.5 -233t238.5 -89
q57 0 111 26q46 22 94 66zM504 370q0 50 -17 79q-21 35 -65 35q-46 0 -79.5 -38.5t-33.5 -88.5q0 -49 19 -76.5t52 -32.5q5 -1 15 -1q45 0 77 42q28 36 32 81z" />
    <glyph glyph-name="A" unicode="A" horiz-adv-x="556" 
d="M159 0h-150l179 750h189l170 -750h-150l-37 190h-164zM260 513l-42 -213h120l-38 213q-4 20 -6.5 38.5t-7.5 65.5l-5 50l-7 -50q-4 -35 -6.5 -57.5t-7.5 -46.5z" />
    <glyph glyph-name="B" unicode="B" horiz-adv-x="556" 
d="M205 110h30h33q17 0 27.5 1t23.5 7q26 12 36 44q7 22 7 60q0 65 -18 88q-21 27 -85 27h-54v-227zM205 447h26h13q34 0 48 3q26 6 39 23q8 12 11.5 32.5t3.5 48.5q0 46 -14 64q-17 22 -62 22h-65v-193zM312 0h-247v750h226q57 0 87 -8q45 -12 72 -47q21 -27 29 -59.5
t8 -75.5q0 -58 -16 -92q-21 -46 -74 -65q57 -9 83 -54.5t26 -121.5q0 -25 -2 -48t-8 -44q-23 -72 -65.5 -103.5t-118.5 -31.5z" />
    <glyph glyph-name="C" unicode="C" horiz-adv-x="556" 
d="M371 267h141l-3 -43q0 -111 -46 -172q-53 -70 -163 -70q-109 0 -165 45q-50 40 -67 122q-13 62 -13 179v107q0 170 38 238q53 95 207 95q95 0 150 -50t55 -144q3 -29 3 -57h-138q-11 86 -11 87q-14 51 -59 51q-63 0 -86 -58q-15 -37 -15 -106v-25v-208q0 -69 14 -104
q24 -59 87 -59q49 0 64 68q7 32 7 104z" />
    <glyph glyph-name="D" unicode="D" horiz-adv-x="611" 
d="M212 110h61q89 0 113 60q20 49 20 223q0 140 -19 190q-22 57 -83 57h-92v-530zM331 0h-259v750h292q35 0 69 -16q47 -22 76 -69q22 -36 31.5 -99.5t9.5 -159.5q0 -104 -4 -151q-7 -86 -29 -138q-27 -65 -82 -97q-16 -9 -39.5 -14.5t-64.5 -5.5z" />
    <glyph glyph-name="E" unicode="E" 
d="M458 0h-394v750h394v-110h-254v-189h234v-110h-234v-231h254v-110z" />
    <glyph glyph-name="F" unicode="F" 
d="M213 0h-140v750h397v-110h-257v-190h241v-110h-241v-340z" />
    <glyph glyph-name="G" unicode="G" horiz-adv-x="611" 
d="M55 328v107q0 170 38 238q53 95 207 95q97 0 150 -32q62 -38 85 -130q3 -14 5 -35.5t2 -55.5h-140q0 70 -15 98q-22 42 -87 42q-63 0 -86 -58q-15 -37 -15 -106v-25v-208q0 -69 14 -104q24 -59 87 -59q56 0 81 56q22 49 22 142h-97v110h233v-403h-105v86q-21 -54 -59 -81
q-33 -23 -75 -23q-109 0 -165 45q-50 40 -67 122q-13 62 -13 179z" />
    <glyph glyph-name="H" unicode="H" horiz-adv-x="611" 
d="M208 0h-140v750h140v-297h196v297h140v-750h-140v343h-196v-343z" />
    <glyph glyph-name="I" unicode="I" horiz-adv-x="278" 
d="M209 0h-140v750h140v-750z" />
    <glyph glyph-name="J" unicode="J" horiz-adv-x="444" 
d="M8 238h140v-93q0 -23 10 -36.5t35 -13.5q33 0 44 24q7 16 7 55v576h140v-547v-20q0 -53 -5 -78q-9 -45 -36.5 -74.5t-74.5 -40.5q-34 -8 -96 -8q-43 0 -76 16q-41 20 -68 61q-11 18 -15.5 68.5t-4.5 110.5z" />
    <glyph glyph-name="K" unicode="K" horiz-adv-x="556" 
d="M208 0h-140v750h140v-333q18 43 42 91q8 16 48 89l82 153h158l-185 -322l194 -428h-158l-132 296l-49 -81v-215z" />
    <glyph glyph-name="L" unicode="L" 
d="M468 0h-400v750h140v-640h260v-110z" />
    <glyph glyph-name="M" unicode="M" horiz-adv-x="778" 
d="M207 236v-236h-140v750h223l75 -348q16 -76 26 -173q5 48 10.5 91t13.5 82l75 348h222v-750h-140v236q0 83 3 167q9 251 9 280l-152 -683h-85l-147 683h-5q0 -83 3 -167q9 -251 9 -280z" />
    <glyph glyph-name="N" unicode="N" horiz-adv-x="611" 
d="M403 603v147h140v-750h-146l-109 267q-51 122 -100 298v-13q0 -26 4 -70q9 -100 9 -131q0 -33 5 -137q2 -42 2 -73v-141h-140v750h145l109 -273q52 -125 100 -298l-12 213q0 38 -2 81q-5 108 -5 130z" />
    <glyph glyph-name="O" unicode="O" horiz-adv-x="611" 
d="M61 328v107q0 170 38 238q53 95 207 95q153 0 206 -95q39 -69 39 -238v-107q0 -120 -12 -178q-17 -84 -66 -123q-56 -45 -167 -45q-109 0 -165 45q-50 40 -67 122q-13 62 -13 179zM205 466v-208q0 -69 14 -104q24 -59 87 -59q66 0 88 60q13 35 13 115v192q0 82 -11 119
q-22 74 -90 74q-63 0 -86 -58q-15 -37 -15 -106v-25z" />
    <glyph glyph-name="P" unicode="P" horiz-adv-x="556" 
d="M208 640v-216h75q50 0 74 24q28 28 28 93q0 62 -24 80.5t-89 18.5h-64zM208 0h-140v750h286q93 0 138 -67q37 -55 37 -146q0 -54 -15 -97q-18 -52 -55 -81q-30 -24 -72 -34.5t-85 -10.5h-94v-314z" />
    <glyph glyph-name="Q" unicode="Q" horiz-adv-x="611" 
d="M587 -5l-71 -66l-78 76q-46 -23 -132 -23q-109 0 -165 45q-50 40 -67 122q-13 62 -13 179v107q0 170 38 238q53 95 207 95q153 0 206 -95q39 -69 39 -238v-107q0 -87 -8 -151.5t-33 -104.5zM315 126l76 64l7 -7q4 17 6 35.5t2 39.5l1 208v25q0 71 -14 106q-23 58 -87 58
q-63 0 -86 -58q-15 -37 -15 -106v-25v-208q0 -69 14 -104q24 -59 87 -59q19 0 36 5z" />
    <glyph glyph-name="R" unicode="R" horiz-adv-x="611" 
d="M231 323h-25v-323h-140v750h265q100 0 152 -38q61 -44 61 -142q0 -73 -22 -116q-28 -56 -93 -65q59 -9 85 -47q23 -33 23 -91v-31q0 -79 5.5 -136.5t24.5 -69.5v-14h-154q-11 31 -13 80.5t-2 88.5v21q0 50 -6 73q-11 41 -38 49t-47.5 9.5t-60.5 1.5h-15zM206 640v-207
h110q37 0 59.5 26.5t22.5 81.5q0 59 -24 81q-19 18 -64 18h-104z" />
    <glyph glyph-name="S" unicode="S" horiz-adv-x="556" 
d="M489 522h-135q0 64 -12 92q-18 41 -70 41q-38 0 -57.5 -16t-19.5 -54t23 -64q14 -16 57 -43t87 -58q58 -41 83 -65q34 -34 48.5 -70.5t14.5 -86.5q0 -104 -63 -160t-168 -56q-121 0 -177 63q-51 57 -51 165v55h140v-44q0 -60 19.5 -93t68.5 -33q87 0 87 88q0 32 -14 55.5
t-39 42t-90 61.5q-96 63 -134 113q-36 53 -36 115q0 198 220 198q113 0 167 -58q51 -55 51 -188z" />
    <glyph glyph-name="T" unicode="T" 
d="M17 640v110h467v-110h-163v-640h-140v640h-164z" />
    <glyph glyph-name="U" unicode="U" horiz-adv-x="611" 
d="M404 239v511h140v-523q0 -130 -49 -185q-54 -60 -188 -60q-135 0 -189 60q-50 55 -50 185v523h140v-511q0 -88 25 -116t75 -28q61 0 82 45q14 30 14 99z" />
    <glyph glyph-name="V" unicode="V" horiz-adv-x="556" 
d="M307 269l79 481h150l-162 -750h-187l-166 750h150l88 -481q5 -28 9 -57.5t8 -70.5q1 -15 3.5 -36t2.5 -26q1 9 4 30.5t5 41.5t6 53.5t10 64.5z" />
    <glyph glyph-name="W" unicode="W" horiz-adv-x="833" 
d="M475 750l75 -388q9 -50 20 -160q2 -20 11 -107l7 54q0 42 2 63.5t19 128.5l56 409h145l-139 -750h-168l-56 296q-9 50 -16.5 114.5t-13.5 124.5q-16 -120 -32 -239l-50 -296h-168l-143 750h145l63 -409q10 -64 15.5 -108t5.5 -84l4 -54q17 133 34 267l68 388h116z" />
    <glyph glyph-name="X" unicode="X" horiz-adv-x="556" 
d="M359 380l186 -380h-160l-80 183q-20 47 -29 95q-5 -30 -13 -54q-4 -12 -37 -86l-62 -138h-153l184 380l-177 370h157l76 -170q13 -30 18 -46q9 -27 9 -48q2 37 25 87l24 50l54 127h158z" />
    <glyph glyph-name="Y" unicode="Y" horiz-adv-x="556" 
d="M165 750l79 -197q12 -31 20 -57.5t13 -57.5q8 37 15 59q3 8 33 83l67 170h153l-198 -431v-319h-140v319l-195 431h153z" />
    <glyph glyph-name="Z" unicode="Z" 
d="M33 0v112l241 465q11 22 18.5 36t20.5 30q-8 -1 -24.5 -2t-29.5 -1h-210v110h410v-112l-241 -465q-11 -22 -17 -33q-9 -17 -22 -33q21 3 41 3h13h235v-110h-435z" />
    <glyph glyph-name="bracketleft" unicode="[" horiz-adv-x="333" 
d="M280 -94h-199v844h199v-76h-89v-692h89v-76z" />
    <glyph glyph-name="backslash" unicode="\" horiz-adv-x="250" 
d="M-89 750h106l323 -750h-106z" />
    <glyph glyph-name="bracketright" unicode="]" horiz-adv-x="333" 
d="M53 750h199v-844h-199v76h89v692h-89v76z" />
    <glyph glyph-name="asciicircum" unicode="^" 
d="M114 326l-104 47l180 377h120l180 -377l-104 -47l-136 279z" />
    <glyph glyph-name="underscore" unicode="_" 
d="M500 -119h-500v58h500v-58z" />
    <glyph glyph-name="grave" unicode="`" horiz-adv-x="333" 
d="M1 775h155l94 -146h-101z" />
    <glyph glyph-name="a" unicode="a" 
d="M440 0h-123q-5 9 -7 20t-2 23q1 10 1 15q-50 -73 -116 -73q-78 0 -114.5 40.5t-36.5 128.5q0 85 58 133q33 27 135 69q35 15 51 31.5t16 40.5q0 10 -3.5 25t-17 20.5t-43.5 5.5q-41 0 -54.5 -20t-13.5 -62h-124q0 90 37 131q46 51 160 51q118 0 159 -55q27 -36 27 -112
v-333q0 -18 3 -38.5t8 -40.5zM299 236v61q-53 -36 -105 -72q-13 -11 -17.5 -28.5t-4.5 -39.5q0 -35 13 -53.5t48 -18.5q40 0 56 37q11 26 11 76q0 12 -0.5 21.5t-0.5 16.5z" />
    <glyph glyph-name="b" unicode="b" 
d="M194 354v-169q0 -100 63 -100q28 0 42.5 27t14.5 70v188q0 58 -6 75q-12 34 -53 34q-40 0 -53 -45q-8 -27 -8 -80zM64 0v750h130v-180l-3 -63q21 40 48 56t70 16q68 0 99 -41q36 -47 36 -159v-204q0 -82 -26 -129q-34 -61 -109 -61q-42 0 -69.5 16.5t-49.5 58.5l-2 -60
h-124z" />
    <glyph glyph-name="c" unicode="c" horiz-adv-x="444" 
d="M402 368h-130v63q0 48 -45 48q-33 0 -43 -37q-6 -23 -6 -89v-133q0 -83 9 -107t40 -28q27 0 36 24q5 13 9 59v52h130v-52q0 -92 -41.5 -137.5t-136.5 -45.5q-88 0 -132 50.5t-44 160.5v183q0 110 51 159q43 41 125 41q92 0 138 -51q40 -44 40 -115v-45z" />
    <glyph glyph-name="d" unicode="d" 
d="M303 185v169q0 55 -7 79q-13 46 -54 46q-40 0 -52 -33q-7 -20 -7 -76v-188q0 -44 14 -70.5t43 -26.5q63 0 63 100zM303 0v60q-20 -41 -47 -58t-67 -17q-75 0 -109 61q-27 48 -27 129v204q0 111 36 158q32 42 100 42q44 0 70 -15.5t46 -56.5q-1 12 -1.5 27t-0.5 23v193
h130v-750h-130z" />
    <glyph glyph-name="e" unicode="e" 
d="M52 222v148q0 101 48 155t142 54q126 0 168 -66q32 -50 32 -182v-76h-260v-82q0 -52 19 -72q15 -16 49 -16q35 0 47.5 24.5t12.5 81.5h130q0 -99 -40 -150q-44 -56 -140 -56q-112 0 -160 55.5t-48 181.5zM182 355h130v49q0 43 -14 59t-54 16q-43 0 -55 -31q-7 -18 -7 -70
v-23z" />
    <glyph glyph-name="f" unicode="f" horiz-adv-x="278" 
d="M71 469h-50v95h50v56q0 75 31 102.5t106 27.5h49v-104q-20 6 -29 6q-27 0 -27 -22v-66h56v-95h-56v-469h-130v469z" />
    <glyph glyph-name="g" unicode="g" 
d="M303 354q0 55 -7 79q-13 46 -54 46q-40 0 -52 -33q-7 -20 -7 -76v-188q0 -44 14 -70.5t43 -26.5q63 0 63 100v169zM59 -63h130q0 -17 14 -25t41 -8q38 0 53 27q12 21 12 61v65l-2 2q-19 -39 -47.5 -56.5t-71.5 -17.5q-76 0 -109 60q-26 47 -26 129v204q0 110 36 158
q32 43 99 43q87 0 113 -73l2 58h130v-547q0 -100 -38 -147q-48 -60 -172 -60q-73 0 -114 27q-50 33 -50 100z" />
    <glyph glyph-name="h" unicode="h" 
d="M191 0h-130v750h130v-244q26 44 63 61q26 12 56 12q59 0 94.5 -35.5t35.5 -108.5v-435h-130v386q0 47 -9 67q-12 26 -46 26q-35 0 -49.5 -27.5t-14.5 -76.5v-375z" />
    <glyph glyph-name="i" unicode="i" horiz-adv-x="278" 
d="M204 0h-130v564h130v-564zM204 632h-130v118h130v-118z" />
    <glyph glyph-name="j" unicode="j" horiz-adv-x="278" 
d="M31 -190v100q27 0 37.5 5t10.5 25v624h130v-567v-23t1 -25q0 -63 -14 -90.5t-38 -39t-85 -11.5h-20q-15 2 -22 2zM209 632h-130v118h130v-118z" />
    <glyph glyph-name="k" unicode="k" horiz-adv-x="444" 
d="M178 0h-130v750h130v-339l-2 -71l125 224h142l-142 -227l138 -337h-145l-81 230l-35 -58v-172z" />
    <glyph glyph-name="l" unicode="l" horiz-adv-x="278" 
d="M204 0h-130v750h130v-750z" />
    <glyph glyph-name="m" unicode="m" horiz-adv-x="778" 
d="M196 564v-58q21 42 59 60q28 13 67 13q43 0 75 -16q40 -20 46 -57q39 73 131 73q68 0 105 -37q33 -33 33 -83v-459h-130v381q0 62 -15 80t-47 18q-39 0 -52.5 -26.5t-13.5 -81.5v-371h-130v388q0 47 -9 64q-14 27 -55 27q-42 0 -55 -30q-9 -21 -9 -78v-371h-130v564h130z
" />
    <glyph glyph-name="n" unicode="n" 
d="M191 564v-58q20 43 60 61q26 12 59 12q59 0 94.5 -35.5t35.5 -108.5v-435h-130v376q0 47 -9 67q-12 26 -46 26q-35 0 -49.5 -27.5t-14.5 -76.5v-365h-130v564h130z" />
    <glyph glyph-name="o" unicode="o" 
d="M183 372v-188q0 -47 4 -61q11 -38 65 -38q42 0 55 23q10 18 10 76v188q0 67 -15 87t-50 20q-46 0 -60 -33q-9 -21 -9 -74zM252 -15q-122 0 -163 65q-36 57 -36 212q0 119 8 168q12 76 52 110q45 39 139 39q92 0 136 -39q39 -34 51 -110q8 -50 8 -168q0 -157 -34 -212
q-40 -65 -161 -65z" />
    <glyph glyph-name="p" unicode="p" 
d="M188 354v-169q0 -100 63 -100q28 0 42.5 27t14.5 70v188q0 58 -6 75q-12 34 -53 34q-40 0 -53 -45q-8 -27 -8 -80zM188 564v-59q19 39 46.5 56.5t68.5 17.5q67 0 99 -42q36 -48 36 -160v-204q0 -81 -26 -128q-33 -60 -109 -60q-40 0 -68 16t-51 57l-2 -247h-124v753h130z
" />
    <glyph glyph-name="q" unicode="q" 
d="M300 185v169q0 55 -7 79q-13 46 -54 46q-40 0 -52 -33q-7 -20 -7 -76v-188q0 -44 14 -70.5t43 -26.5q63 0 63 100zM430 564v-752h-130v248q-19 -40 -47 -57.5t-68 -17.5q-75 0 -109 61q-26 47 -26 129v204q0 110 36 158q32 42 99 42q43 0 69 -15.5t44 -56.5l2 57h130z
" />
    <glyph glyph-name="r" unicode="r" horiz-adv-x="333" 
d="M185 564v-100q13 30 26 49t27 31q19 16 36.5 23t44.5 7v-154q-7 0 -15.5 0.5t-11.5 0.5q-48 0 -75 -21.5t-27 -73.5v-326h-130v564h125z" />
    <glyph glyph-name="s" unicode="s" horiz-adv-x="444" 
d="M28 186h130q-1 -8 -1.5 -17.5t-0.5 -13.5q0 -47 21 -62q11 -8 41 -8q25 0 40.5 13.5t15.5 35.5q0 4 -2 14q0 16 -13 30q-6 6 -51 37l-71 49q-53 37 -78 75q-29 45 -29 103q0 65 50 101t144 36q93 0 137 -47t44 -140h-130q0 48 -13 67.5t-47 19.5q-24 0 -39.5 -11.5
t-15.5 -34.5q0 -22 15 -38q9 -10 34 -27l106 -72q28 -16 55 -48q31 -37 33 -56.5t2.5 -29t0.5 -15.5q0 -73 -39 -113q-48 -49 -156 -49q-69 0 -116 31q-68 45 -68 142q0 18 1 28z" />
    <glyph glyph-name="t" unicode="t" horiz-adv-x="278" 
d="M252 100v-102q-24 -2 -39 -3.5t-27 -1.5q-53 0 -82 18q-37 23 -37 76v382h-53v95h52v155h131v-155h55v-95h-55v-350q1 -11 12 -15.5t25 -4.5q13 0 18 1z" />
    <glyph glyph-name="u" unicode="u" 
d="M307 0v84q-33 -99 -123 -99q-73 0 -99.5 35.5t-26.5 111.5v432h130v-386q0 -29 2 -44.5t11 -30.5q17 -18 40 -18q40 0 53 40q7 22 7 73v366h130v-564h-124z" />
    <glyph glyph-name="v" unicode="v" horiz-adv-x="444" 
d="M142 0l-132 564h140l55 -316q7 -33 12.5 -88t5.5 -79q4 57 6 74q6 54 14 93l56 316h135l-130 -564h-162z" />
    <glyph glyph-name="w" unicode="w" horiz-adv-x="667" 
d="M381 564l63 -346q5 -30 9 -61t4 -60l7 66.5t7 58.5l43 342h131l-114 -564h-142l-43 228q-9 45 -13 76t-4 66h-4q0 -28 -3.5 -62.5t-9.5 -71.5l-40 -236h-145l-116 564h137l46 -344q3 -19 7 -67.5t4 -57.5q2 37 4.5 55t10.5 66l54 348h107z" />
    <glyph glyph-name="x" unicode="x" horiz-adv-x="444" 
d="M157 288l-142 276h153l43 -102q5 -17 7 -25q6 -21 7 -26l18 53l46 100h144l-141 -273l144 -291h-146l-39 91q-11 25 -17 43t-9 40q-9 -41 -31 -90l-37 -84h-149z" />
    <glyph glyph-name="y" unicode="y" horiz-adv-x="444" 
d="M5 564h137l57 -299q2 -11 8 -57.5t11 -92.5q1 34 9.5 78t12.5 68l57 303h132l-137 -572q-29 -112 -43 -135q-32 -52 -113 -52q-22 0 -60 5v101q21 -2 34 -2q20 0 29 4q14 7 14 23q0 14 -3.5 32t-8.5 40z" />
    <glyph glyph-name="z" unicode="z" horiz-adv-x="389" 
d="M367 471l-206 -371h206v-100h-344v102l198 362h-194v100h340v-93z" />
    <glyph glyph-name="braceleft" unicode="{" horiz-adv-x="274" 
d="M43 436v184q0 67 28 98.5t95 31.5h74q-44 -11 -59.5 -38t-15.5 -74v-184q0 -57 -15 -83q-19 -32 -67 -43q48 -8 67 -49q15 -32 15 -88v-172q0 -43 14 -67q18 -31 61 -42l-65 -2q-77 0 -104.5 34t-27.5 114v162q0 46 -15 69q-18 27 -60 38q40 7 59 40q16 28 16 71z" />
    <glyph glyph-name="bar" unicode="|" horiz-adv-x="250" 
d="M75 0v750h100v-750h-100z" />
    <glyph glyph-name="braceright" unicode="}" horiz-adv-x="274" 
d="M231 618v-183q0 -45 15 -71q19 -32 60 -38q-45 -7 -62 -37q-13 -24 -13 -73v-162q0 -80 -24 -111q-29 -37 -105 -37h-68q43 11 59 38t16 74v171q0 59 13 85q17 35 69 50q-48 12 -65 42t-17 86v185q0 47 -17 74.5t-58 35.5l68 3q71 0 100 -30t29 -102z" />
    <glyph glyph-name="asciitilde" unicode="~" 
d="M418 359l57 -73q-35 -61 -51 -79q-34 -38 -78 -38q-33 0 -103 33t-83 33q-27 0 -47 -28q-5 -7 -30 -54l-57 74q27 55 52 83q37 41 81 41q35 0 102 -33t85 -33q19 0 34 15q6 6 38 59z" />
    <glyph glyph-name="c128" horiz-adv-x="703" 
d="M505 297q0 30 -21 47t-52 17q-29 0 -58.5 -9t-52.5 -24v-328h-140v640h-164v110h467v-110h-163v-192q43 20 72 28q40 11 86 11q74 0 120 -48t46 -131v-105q0 -110 -50.5 -165.5t-161.5 -55.5h-20v113h21q38 0 56 24q15 20 15 55v123z" />
    <glyph glyph-name="c128" unicode="&#x402;" horiz-adv-x="703" 
d="M505 297q0 30 -21 47t-52 17q-29 0 -58.5 -9t-52.5 -24v-328h-140v640h-164v110h467v-110h-163v-192q43 20 72 28q40 11 86 11q74 0 120 -48t46 -131v-105q0 -110 -50.5 -165.5t-161.5 -55.5h-20v113h21q38 0 56 24q15 20 15 55v123z" />
    <glyph glyph-name="c129" 
d="M208 0h-140v750h400v-110h-260v-640zM171 815l94 146h155l-148 -146h-101z" />
    <glyph glyph-name="c129" unicode="&#x403;" 
d="M208 0h-140v750h400v-110h-260v-640zM171 815l94 146h155l-148 -146h-101z" />
    <glyph glyph-name="quotesinglbase" unicode="&#x201a;" horiz-adv-x="278" 
d="M87 -138v46q39 8 51 29t12 65h-63v130h120v-119q0 -69 -26 -103t-94 -48z" />
    <glyph glyph-name="florin" unicode="&#x192;" horiz-adv-x="407" 
d="M380 464h-190v-464h-129v564h319v-100zM121 629l94 146h155l-148 -146h-101z" />
    <glyph glyph-name="florin" unicode="&#x453;" horiz-adv-x="407" 
d="M380 464h-190v-464h-129v564h319v-100zM121 629l94 146h155l-148 -146h-101z" />
    <glyph glyph-name="quotedblbase" unicode="&#x201e;" 
d="M293 -138v46q18 4 30.5 10.5t20.5 19t10 30t2 34.5h-63v130h120v-119q0 -69 -26 -103t-94 -48zM96 -138v46q39 8 51 29t12 65h-63v130h120v-119q0 -69 -26 -103t-94 -48z" />
    <glyph glyph-name="ellipsis" unicode="&#x2026;" horiz-adv-x="1000" 
d="M233 0h-132v132h132v-132zM566 0h-132v132h132v-132zM899 0h-132v132h132v-132z" />
    <glyph glyph-name="dagger" unicode="&#x2020;" 
d="M188 422h-151v112h151v234h128v-234h147v-112h-147v-577h-128v577z" />
    <glyph glyph-name="daggerdbl" unicode="&#x2021;" 
d="M188 77h-153v113h153v230h-153v113h153v235h128v-235h150v-113h-150v-230h150v-113h-150v-238h-128v238z" />
    <glyph glyph-name="perthousand" unicode="&#x2030;" horiz-adv-x="1111" 
d="M579 366q98 0 132 -56q22 -37 22 -127t-22 -127q-33 -56 -132 -56q-96 0 -130 56q-23 38 -23 127q0 90 22 127q33 56 131 56zM580 293q-40 0 -51 -30q-7 -18 -7 -80q0 -61 7 -80q11 -30 51 -30q39 0 50 30q7 19 7 80t-7 80q-11 30 -50 30zM937 366q98 0 132 -56
q22 -37 22 -127t-22 -127q-33 -56 -132 -56q-96 0 -130 56q-23 38 -23 127q0 90 22 127q33 56 131 56zM938 293q-40 0 -51 -30q-7 -18 -7 -80q0 -61 7 -80q11 -30 51 -30q39 0 50 30q7 19 7 80t-7 80q-11 30 -50 30zM174 736q98 0 132 -56q22 -37 22 -127t-22 -127
q-33 -56 -132 -56q-96 0 -130 56q-23 38 -23 127q0 90 22 127q33 56 131 56zM175 663q-40 0 -51 -30q-7 -18 -7 -80q0 -61 7 -80q11 -30 51 -30q39 0 50 30q7 19 7 80t-7 80q-11 30 -50 30zM246 -18h-73l339 766h72z" />
    <glyph glyph-name="Scaron" unicode="&#x160;" horiz-adv-x="869" 
d="M524 110h64q62 0 87.5 23.5t25.5 86.5q0 64 -26.5 90.5t-75.5 26.5h-75v-227zM524 750v-303h94q46 0 86 -10t71 -35q38 -30 54 -76.5t16 -101.5q0 -98 -52 -158q-58 -66 -163 -66h-246v640h-163v-324q0 -175 -27 -236q-44 -98 -187 -98v122q57 0 73 53q11 37 11 162v431
h433z" />
    <glyph glyph-name="Scaron" unicode="&#x409;" horiz-adv-x="869" 
d="M524 110h64q62 0 87.5 23.5t25.5 86.5q0 64 -26.5 90.5t-75.5 26.5h-75v-227zM524 750v-303h94q46 0 86 -10t71 -35q38 -30 54 -76.5t16 -101.5q0 -98 -52 -158q-58 -66 -163 -66h-246v640h-163v-324q0 -175 -27 -236q-44 -98 -187 -98v122q57 0 73 53q11 37 11 162v431
h433z" />
    <glyph glyph-name="guilsinglleft" unicode="&#x2039;" horiz-adv-x="278" 
d="M215 62l-157 142v102l157 141v-112l-95 -75l95 -85v-113z" />
    <glyph glyph-name="OE" unicode="&#x152;" horiz-adv-x="888" 
d="M544 110h64q62 0 87.5 23.5t25.5 86.5q0 64 -26.5 90.5t-75.5 26.5h-75v-227zM404 343h-196v-343h-140v750h140v-297h196v297h140v-303h94q46 0 86 -10t71 -35q38 -30 54 -76.5t16 -101.5q0 -98 -52 -158q-58 -66 -163 -66h-246v343z" />
    <glyph glyph-name="OE" unicode="&#x40a;" horiz-adv-x="888" 
d="M544 110h64q62 0 87.5 23.5t25.5 86.5q0 64 -26.5 90.5t-75.5 26.5h-75v-227zM404 343h-196v-343h-140v750h140v-297h196v297h140v-303h94q46 0 86 -10t71 -35q38 -30 54 -76.5t16 -101.5q0 -98 -52 -158q-58 -66 -163 -66h-246v343z" />
    <glyph glyph-name="c141" horiz-adv-x="556" 
d="M208 0h-140v750h140v-333q18 43 42 91q8 16 48 89l82 153h158l-185 -322l194 -428h-158l-132 296l-49 -81v-215zM195 815l94 146h155l-148 -146h-101z" />
    <glyph glyph-name="c141" unicode="&#x40c;" horiz-adv-x="556" 
d="M208 0h-140v750h140v-333q18 43 42 91q8 16 48 89l82 153h158l-185 -322l194 -428h-158l-132 296l-49 -81v-215zM195 815l94 146h155l-148 -146h-101z" />
    <glyph glyph-name="c142" horiz-adv-x="703" 
d="M321 328v-328h-140v640h-164v110h467v-110h-163v-192q43 20 72 28q40 11 86 11q73 0 119 -48t46 -131v-308h-139v297q0 31 -21.5 47.5t-51.5 16.5q-29 0 -58.5 -9t-52.5 -24z" />
    <glyph glyph-name="c142" unicode="&#x40b;" horiz-adv-x="703" 
d="M321 328v-328h-140v640h-164v110h467v-110h-163v-192q43 20 72 28q40 11 86 11q73 0 119 -48t46 -131v-308h-139v297q0 31 -21.5 47.5t-51.5 16.5q-29 0 -58.5 -9t-52.5 -24z" />
    <glyph glyph-name="c143" horiz-adv-x="611" 
d="M240 0h-173v750h140v-640h196v640h140v-750h-173v-108h-130v108z" />
    <glyph glyph-name="c143" unicode="&#x40f;" horiz-adv-x="611" 
d="M240 0h-173v750h140v-640h196v640h140v-750h-173v-108h-130v108z" />
    <glyph glyph-name="c144" 
d="M440 -3v-23t1 -25q0 -63 -14 -90.5t-38 -39t-85 -11.5h-20q-15 2 -22 2v100q27 0 37.5 5t10.5 25v296q0 47 -9 67q-12 26 -46 26q-35 0 -49.5 -27.5t-14.5 -76.5v-225h-130v469h-52v95h52v186h130v-186h166v-95h-166v-113q26 44 63 61q26 12 56 12q59 0 94.5 -35.5
t35.5 -108.5v-288z" />
    <glyph glyph-name="c144" unicode="&#x452;" 
d="M440 -3v-23t1 -25q0 -63 -14 -90.5t-38 -39t-85 -11.5h-20q-15 2 -22 2v100q27 0 37.5 5t10.5 25v296q0 47 -9 67q-12 26 -46 26q-35 0 -49.5 -27.5t-14.5 -76.5v-225h-130v469h-52v95h52v186h130v-186h166v-95h-166v-113q26 44 63 61q26 12 56 12q59 0 94.5 -35.5
t35.5 -108.5v-288z" />
    <glyph glyph-name="quoteleft" unicode="&#x2018;" horiz-adv-x="278" 
d="M197 766v-46q-64 -9 -64 -95h64v-130h-121v119q0 70 26 105.5t95 46.5z" />
    <glyph glyph-name="quoteright" unicode="&#x2019;" horiz-adv-x="278" 
d="M81 479v46q64 9 64 95h-64v130h121v-119q0 -70 -26 -105.5t-95 -46.5z" />
    <glyph glyph-name="quotedblleft" unicode="&#x201c;" 
d="M208 766v-46q-64 -9 -64 -95h64v-130h-121v119q0 70 26 105.5t95 46.5zM405 766v-46q-64 -9 -64 -95h64v-130h-121v119q0 70 26 105.5t95 46.5z" />
    <glyph glyph-name="quotedblright" unicode="&#x201d;" 
d="M292 479v46q64 9 64 95h-64v130h121v-119q0 -70 -26 -105.5t-95 -46.5zM95 479v46q64 9 64 95h-64v130h121v-119q0 -70 -26 -105.5t-95 -46.5z" />
    <glyph glyph-name="bullet" unicode="&#x2022;" horiz-adv-x="420" 
d="M398 375q0 -78 -55.5 -133.5t-133.5 -55.5t-132.5 55.5t-54.5 133.5q0 77 54 132t133 55q77 0 133 -55t56 -132z" />
    <glyph glyph-name="endash" unicode="&#x2013;" 
d="M500 259h-500v110h500v-110z" />
    <glyph glyph-name="emdash" unicode="&#x2014;" horiz-adv-x="1000" 
d="M1000 259h-1000v110h1000v-110z" />
    <glyph glyph-name="trademark" unicode="&#x2122;" horiz-adv-x="860" 
d="M774 750v-404h-80v326l-107 -326h-47l-105 326l-2 -326h-80v404h129l82 -239l81 239h129zM310 750v-78h-115v-326h-80v326h-114v78h309z" />
    <glyph glyph-name="scaron" unicode="&#x161;" horiz-adv-x="721" 
d="M452 96q58 0 79 11q30 16 30 66q0 46 -29 62q-22 12 -71 12h-22v-151h13zM439 564v-219h33q110 0 158 -32q60 -40 60 -143q0 -98 -55 -137q-26 -18 -67.5 -25.5t-85.5 -7.5h-173v464h-97v-227q0 -127 -27 -176q-41 -74 -162 -74v113q47 0 59 33q9 25 9 115v316h348z" />
    <glyph glyph-name="scaron" unicode="&#x459;" horiz-adv-x="721" 
d="M452 96q58 0 79 11q30 16 30 66q0 46 -29 62q-22 12 -71 12h-22v-151h13zM439 564v-219h33q110 0 158 -32q60 -40 60 -143q0 -98 -55 -137q-26 -18 -67.5 -25.5t-85.5 -7.5h-173v464h-97v-227q0 -127 -27 -176q-41 -74 -162 -74v113q47 0 59 33q9 25 9 115v316h348z" />
    <glyph glyph-name="guilsinglright" unicode="&#x203a;" horiz-adv-x="278" 
d="M63 62v113l94 81l-94 79v112l157 -141v-102z" />
    <glyph glyph-name="oe" unicode="&#x153;" horiz-adv-x="721" 
d="M452 96q58 0 79 11q30 16 30 66q0 46 -29 62q-22 12 -71 12h-22v-151h13zM309 343v221h130v-219h33q110 0 158 -32q60 -40 60 -143q0 -98 -55 -137q-26 -18 -67.5 -25.5t-85.5 -7.5h-173v243h-118v-243h-130v564h130v-221h118z" />
    <glyph glyph-name="oe" unicode="&#x45a;" horiz-adv-x="721" 
d="M452 96q58 0 79 11q30 16 30 66q0 46 -29 62q-22 12 -71 12h-22v-151h13zM309 343v221h130v-219h33q110 0 158 -32q60 -40 60 -143q0 -98 -55 -137q-26 -18 -67.5 -25.5t-85.5 -7.5h-173v243h-118v-243h-130v564h130v-221h118z" />
    <glyph glyph-name="c157" horiz-adv-x="444" 
d="M178 0h-130v564h130v-153l-2 -71l125 224h142l-142 -227l138 -337h-145l-81 230l-35 -58v-172zM139 629l94 146h155l-148 -146h-101z" />
    <glyph glyph-name="c157" unicode="&#x45c;" horiz-adv-x="444" 
d="M178 0h-130v564h130v-153l-2 -71l125 224h142l-142 -227l138 -337h-145l-81 230l-35 -58v-172zM139 629l94 146h155l-148 -146h-101z" />
    <glyph glyph-name="c158" 
d="M191 469v-113q26 44 63 61q26 12 56 12q59 0 94.5 -35.5t35.5 -108.5v-285h-130v236q0 47 -9 67q-12 26 -46 26q-35 0 -49.5 -27.5t-14.5 -76.5v-225h-130v469h-52v95h52v186h130v-186h166v-95h-166z" />
    <glyph glyph-name="c158" unicode="&#x45b;" 
d="M191 469v-113q26 44 63 61q26 12 56 12q59 0 94.5 -35.5t35.5 -108.5v-285h-130v236q0 47 -9 67q-12 26 -46 26q-35 0 -49.5 -27.5t-14.5 -76.5v-225h-130v469h-52v95h52v186h130v-186h166v-95h-166z" />
    <glyph glyph-name="Ydieresis" unicode="&#x178;" 
d="M190 0h-129v564h130v-464h118v464h130v-564h-129v-108h-120v108z" />
    <glyph glyph-name="Ydieresis" unicode="&#x45f;" 
d="M190 0h-129v564h130v-464h118v464h130v-564h-129v-108h-120v108z" />
    <glyph glyph-name="nonbreakingspace" unicode="&#xa0;" 
 />
    <glyph glyph-name="exclamdown" unicode="&#xa1;" horiz-adv-x="556" 
d="M11 750h154l103 -279q9 -24 17 -60t12 -63q13 67 16 79q9 42 22 86l68 237h147l-185 -572q-34 -106 -62 -142q-42 -54 -120 -54q-28 0 -39 1q-14 3 -20 3v121q8 -2 21 -3t24 -1q39 0 57 47l17 46zM393 966h65q-9 -70 -52.5 -107.5t-115.5 -37.5q-78 0 -123 40.5
t-45 104.5h65q4 -35 30 -52.5t68 -17.5q52 0 77.5 16.5t30.5 53.5z" />
    <glyph glyph-name="exclamdown" unicode="&#x40e;" horiz-adv-x="556" 
d="M11 750h154l103 -279q9 -24 17 -60t12 -63q13 67 16 79q9 42 22 86l68 237h147l-185 -572q-34 -106 -62 -142q-42 -54 -120 -54q-28 0 -39 1q-14 3 -20 3v121q8 -2 21 -3t24 -1q39 0 57 47l17 46zM393 966h65q-9 -70 -52.5 -107.5t-115.5 -37.5q-78 0 -123 40.5
t-45 104.5h65q4 -35 30 -52.5t68 -17.5q52 0 77.5 16.5t30.5 53.5z" />
    <glyph glyph-name="cent" unicode="&#xa2;" horiz-adv-x="444" 
d="M5 564h137l57 -299q2 -11 8 -57.5t11 -92.5q1 34 9.5 78t12.5 68l57 303h132l-137 -572q-29 -112 -43 -135q-32 -52 -113 -52q-22 0 -60 5v101q21 -2 34 -2q20 0 29 4q14 7 14 23q0 14 -3.5 32t-8.5 40zM328 780h65q-9 -70 -52.5 -107.5t-115.5 -37.5q-78 0 -123 40.5
t-45 104.5h65q4 -35 30 -52.5t68 -17.5q52 0 77.5 16.5t30.5 53.5z" />
    <glyph glyph-name="cent" unicode="&#x45e;" horiz-adv-x="444" 
d="M5 564h137l57 -299q2 -11 8 -57.5t11 -92.5q1 34 9.5 78t12.5 68l57 303h132l-137 -572q-29 -112 -43 -135q-32 -52 -113 -52q-22 0 -60 5v101q21 -2 34 -2q20 0 29 4q14 7 14 23q0 14 -3.5 32t-8.5 40zM328 780h65q-9 -70 -52.5 -107.5t-115.5 -37.5q-78 0 -123 40.5
t-45 104.5h65q4 -35 30 -52.5t68 -17.5q52 0 77.5 16.5t30.5 53.5z" />
    <glyph glyph-name="sterling" unicode="&#xa3;" horiz-adv-x="444" 
d="M8 238h140v-93q0 -23 10 -36.5t35 -13.5q33 0 44 24q7 16 7 55v576h140v-547v-20q0 -53 -5 -78q-9 -45 -36.5 -74.5t-74.5 -40.5q-34 -8 -96 -8q-43 0 -76 16q-41 20 -68 61q-11 18 -15.5 68.5t-4.5 110.5z" />
    <glyph glyph-name="sterling" unicode="&#x408;" horiz-adv-x="444" 
d="M8 238h140v-93q0 -23 10 -36.5t35 -13.5q33 0 44 24q7 16 7 55v576h140v-547v-20q0 -53 -5 -78q-9 -45 -36.5 -74.5t-74.5 -40.5q-34 -8 -96 -8q-43 0 -76 16q-41 20 -68 61q-11 18 -15.5 68.5t-4.5 110.5z" />
    <glyph glyph-name="currency" unicode="&#xa4;" 
d="M9 137l42 44q-18 33 -26.5 62.5t-8.5 65.5q0 69 35 129l-42 42l76 80l42 -43q28 17 60.5 27.5t62.5 10.5q67 0 127 -38l43 43l72 -80l-41 -42q36 -60 36 -128q0 -37 -8.5 -69t-27.5 -60l41 -44l-72 -79l-43 43q-31 -19 -60.5 -28.5t-62.5 -9.5q-69 0 -127 38l-42 -43z
M252 437q-49 0 -83.5 -38.5t-34.5 -88.5t34.5 -89.5t83.5 -39.5t83 39t34 90t-33.5 89t-83.5 38z" />
    <glyph glyph-name="yen" unicode="&#xa5;" 
d="M468 640h-260v-640h-140v750h271v108h130z" />
    <glyph glyph-name="yen" unicode="&#x490;" 
d="M468 640h-260v-640h-140v750h271v108h130z" />
    <glyph glyph-name="brokenbar" unicode="&#xa6;" horiz-adv-x="250" 
d="M75 0v300h100v-300h-100zM175 750v-300h-100v300h100z" />
    <glyph glyph-name="section" unicode="&#xa7;" 
d="M305 320l-114 93q-15 -6 -27.5 -22.5t-12.5 -37.5q0 -12 4 -23q10 -26 29 -40l123 -100q16 9 27 26.5t11 36.5q0 15 -7.5 29.5t-32.5 37.5zM54 12h125q0 -47 13 -67q17 -26 60 -26q21 0 37.5 14t21.5 35q2 10 2 15q0 21 -12 41t-48 47l-119 93q-54 43 -73 72
q-24 38 -24 100q0 45 21.5 83t64.5 62q-29 21 -40 49.5t-11 75.5q0 65 45 110q52 52 145 52q82 0 129 -46t47 -130h-123q3 34 -13 55t-50 21q-27 0 -42.5 -13t-15.5 -42q0 -25 13 -44q10 -15 33 -33l137 -108q43 -33 64.5 -68.5t21.5 -86.5q0 -45 -22 -84t-61 -63
q23 -16 40 -56.5t17 -77.5q0 -75 -59 -125t-137 -50q-74 0 -121 35q-42 31 -59 88q-3 11 -5 28t-2 44z" />
    <glyph glyph-name="dieresis" unicode="&#xa8;" 
d="M458 0h-394v750h394v-110h-254v-189h234v-110h-234v-231h254v-110zM216 830h-127v115h127v-115zM412 830h-128v115h128v-115z" />
    <glyph glyph-name="dieresis" unicode="&#x401;" 
d="M458 0h-394v750h394v-110h-254v-189h234v-110h-234v-231h254v-110zM216 830h-127v115h127v-115zM412 830h-128v115h128v-115z" />
    <glyph glyph-name="copyright" unicode="&#xa9;" horiz-adv-x="830" 
d="M416 768q162 0 277 -114t115 -277q0 -165 -114 -280t-278 -115t-279 115t-115 280q0 163 115 277t279 114zM416 57q131 0 224.5 93.5t93.5 226.5q0 131 -93 224t-225 93t-226 -93t-94 -224q0 -133 93.5 -226.5t226.5 -93.5zM527 306h89q-8 -70 -60 -111.5t-124 -41.5
q-97 0 -157 64.5t-60 162.5q0 100 58 163t157 63q72 0 122.5 -39.5t63.5 -109.5h-89q-7 37 -33 57t-65 20q-60 0 -93 -44.5t-33 -107.5q0 -62 33 -107q37 -50 96 -50q37 0 66 23t29 58z" />
    <glyph glyph-name="ordfeminine" unicode="&#xaa;" horiz-adv-x="556" 
d="M527 234q0 -118 -53 -182q-58 -70 -174 -70q-109 0 -165 45q-50 40 -67 122q-13 62 -13 179v107q0 170 38 238q53 95 207 95q98 0 160 -50.5t62 -143.5l3 -34h-140q0 43 -20 76q-24 39 -65 39q-63 0 -86 -58q-15 -37 -15 -106v-25v-19h170v-110h-170v-79q0 -69 14 -104
q24 -59 87 -59q43 0 67 48q20 40 20 91h140z" />
    <glyph glyph-name="ordfeminine" unicode="&#x404;" horiz-adv-x="556" 
d="M527 234q0 -118 -53 -182q-58 -70 -174 -70q-109 0 -165 45q-50 40 -67 122q-13 62 -13 179v107q0 170 38 238q53 95 207 95q98 0 160 -50.5t62 -143.5l3 -34h-140q0 43 -20 76q-24 39 -65 39q-63 0 -86 -58q-15 -37 -15 -106v-25v-19h170v-110h-170v-79q0 -69 14 -104
q24 -59 87 -59q43 0 67 48q20 40 20 91h140z" />
    <glyph glyph-name="guillemotleft" unicode="&#xab;" 
d="M231 62l-157 142v102l157 141v-112l-94 -79l94 -81v-113zM419 62l-159 142v102l159 141v-112l-96 -79l96 -81v-113z" />
    <glyph glyph-name="logicalnot" unicode="&#xac;" 
d="M365 105v186h-339v110h449v-296h-110z" />
    <glyph glyph-name="minus" unicode="&#xad;" horiz-adv-x="333" 
d="M340 666h-346v74h346v-74z" />
    <glyph glyph-name="registered" unicode="&#xae;" horiz-adv-x="830" 
d="M416 -18q-164 0 -279 115t-115 279q0 162 115 277t279 115q162 0 277 -115t115 -277q0 -163 -114.5 -278.5t-277.5 -115.5zM416 56q132 0 225 93t93 227q0 132 -93 225t-225 93t-226 -93t-94 -225q0 -134 93 -227t227 -93zM508 341l103 -180h-97l-94 180h-83v-180h-83
v425h205q36 0 64.5 -4t50.5 -17q26 -17 38 -45.5t12 -64.5q0 -114 -116 -114zM337 404h124q41 0 58 11q22 14 22 53q0 36 -35 48q-21 7 -66 7h-103v-119z" />
    <glyph glyph-name="macron" unicode="&#xaf;" horiz-adv-x="278" 
d="M209 0h-140v750h140v-750zM105 830h-127v115h127v-115zM301 830h-128v115h128v-115z" />
    <glyph glyph-name="macron" unicode="&#x407;" horiz-adv-x="278" 
d="M209 0h-140v750h140v-750zM105 830h-127v115h127v-115zM301 830h-128v115h128v-115z" />
    <glyph glyph-name="degree" unicode="&#xb0;" horiz-adv-x="400" 
d="M350 600q0 -62 -44 -106t-106 -44t-106 44t-44 106t44 106t106 44t106 -44t44 -106zM129 600q0 -29 21 -50t51 -21t50 20t20 51q0 29 -20 50t-51 21q-29 0 -50 -21t-21 -50z" />
    <glyph glyph-name="plusminus" unicode="&#xb1;" 
d="M195 379v134h110v-134h170v-110h-170v-134h-110v134h-169v110h169zM26 -15v110h449v-110h-449z" />
    <glyph glyph-name="twosuperior" unicode="&#xb2;" horiz-adv-x="278" 
d="M209 0h-140v750h140v-750z" />
    <glyph glyph-name="twosuperior" unicode="&#x406;" horiz-adv-x="278" 
d="M209 0h-140v750h140v-750z" />
    <glyph glyph-name="threesuperior" unicode="&#xb3;" horiz-adv-x="278" 
d="M204 0h-130v564h130v-564zM204 632h-130v118h130v-118z" />
    <glyph glyph-name="threesuperior" unicode="&#x456;" horiz-adv-x="278" 
d="M204 0h-130v564h130v-564zM204 632h-130v118h130v-118z" />
    <glyph glyph-name="acute" unicode="&#xb4;" horiz-adv-x="407" 
d="M260 564v108h120v-208h-190v-464h-129v564h199z" />
    <glyph glyph-name="acute" unicode="&#x491;" horiz-adv-x="407" 
d="M260 564v108h120v-208h-190v-464h-129v564h199z" />
    <glyph glyph-name="mu" unicode="&#xb5;" 
d="M431 0h-124v84q-14 -42 -35 -63t-53 -21q-13 0 -31 5v-194h-130v753h130v-386q0 -29 2 -44.5t11 -30.5q17 -18 40 -18q40 0 53 40q7 22 7 73v366h130v-564z" />
    <glyph glyph-name="paragraph" unicode="&#xb6;" horiz-adv-x="550" 
d="M366 -116v748h-68v-748h-118v517q-75 0 -116 47t-41 124q0 96 53 139q48 39 147 39h303v-118h-42v-748h-118z" />
    <glyph glyph-name="periodcentered" unicode="&#xb7;" horiz-adv-x="333" 
d="M233 315h-132v-132h132v132z" />
    <glyph glyph-name="periodcentered" unicode="&#x2219;" horiz-adv-x="333" 
d="M233 315h-132v-132h132v132z" />
    <glyph glyph-name="cedilla" unicode="&#xb8;" 
d="M52 222v148q0 101 48 155t142 54q126 0 168 -66q32 -50 32 -182v-76h-260v-82q0 -52 19 -72q15 -16 49 -16q35 0 47.5 24.5t12.5 81.5h130q0 -99 -40 -150q-44 -56 -140 -56q-112 0 -160 55.5t-48 181.5zM182 355h130v49q0 43 -14 59t-54 16q-43 0 -55 -31q-7 -18 -7 -70
v-23zM216 644h-127v115h127v-115zM412 644h-128v115h128v-115z" />
    <glyph glyph-name="cedilla" unicode="&#x451;" 
d="M52 222v148q0 101 48 155t142 54q126 0 168 -66q32 -50 32 -182v-76h-260v-82q0 -52 19 -72q15 -16 49 -16q35 0 47.5 24.5t12.5 81.5h130q0 -99 -40 -150q-44 -56 -140 -56q-112 0 -160 55.5t-48 181.5zM182 355h130v49q0 43 -14 59t-54 16q-43 0 -55 -31q-7 -18 -7 -70
v-23zM216 644h-127v115h127v-115zM412 644h-128v115h128v-115z" />
    <glyph glyph-name="onesuperior" unicode="&#xb9;" horiz-adv-x="906" 
d="M403 603v147h140v-750h-146l-109 267q-51 122 -100 298v-13q0 -26 4 -70q9 -100 9 -131q0 -33 5 -137q2 -42 2 -73v-141h-140v750h145l109 -273q52 -125 100 -298l-12 213q0 38 -2 81q-5 108 -5 130zM712 648v-113q0 -32 5 -43q9 -20 38 -20t38 20q6 13 6 43v113
q0 35 -8 47.5t-36 12.5t-35.5 -13t-7.5 -47zM756 768q86 0 111 -51q17 -34 17 -139q0 -94 -22 -127q-26 -39 -105 -39t-106 39q-23 34 -23 127q0 105 16 138q25 52 112 52zM628 291v63h255v-63h-255z" />
    <glyph glyph-name="onesuperior" unicode="&#x2116;" horiz-adv-x="906" 
d="M403 603v147h140v-750h-146l-109 267q-51 122 -100 298v-13q0 -26 4 -70q9 -100 9 -131q0 -33 5 -137q2 -42 2 -73v-141h-140v750h145l109 -273q52 -125 100 -298l-12 213q0 38 -2 81q-5 108 -5 130zM712 648v-113q0 -32 5 -43q9 -20 38 -20t38 20q6 13 6 43v113
q0 35 -8 47.5t-36 12.5t-35.5 -13t-7.5 -47zM756 768q86 0 111 -51q17 -34 17 -139q0 -94 -22 -127q-26 -39 -105 -39t-106 39q-23 34 -23 127q0 105 16 138q25 52 112 52zM628 291v63h255v-63h-255z" />
    <glyph glyph-name="ordmasculine" unicode="&#xba;" horiz-adv-x="444" 
d="M436 186q0 -103 -51 -152t-150 -49q-93 0 -140 55.5t-47 153.5v165q0 102 45.5 161t141.5 59q94 0 143.5 -49.5t49.5 -135.5h-127l-2 27q-5 28 -19 43t-40 15q-36 0 -51 -34q-11 -26 -11 -72v-33h120v-99h-120v-50q0 -46 11 -70q16 -36 57 -36q37 0 52 32q11 23 11 69
h127z" />
    <glyph glyph-name="ordmasculine" unicode="&#x454;" horiz-adv-x="444" 
d="M436 186q0 -103 -51 -152t-150 -49q-93 0 -140 55.5t-47 153.5v165q0 102 45.5 161t141.5 59q94 0 143.5 -49.5t49.5 -135.5h-127l-2 27q-5 28 -19 43t-40 15q-36 0 -51 -34q-11 -26 -11 -72v-33h120v-99h-120v-50q0 -46 11 -70q16 -36 57 -36q37 0 52 32q11 23 11 69
h127z" />
    <glyph glyph-name="guillemotright" unicode="&#xbb;" 
d="M81 62v113l96 85l-96 75v112l159 -141v-102zM269 62v113l95 85l-95 75v112l157 -141v-102z" />
    <glyph glyph-name="onequarter" unicode="&#xbc;" horiz-adv-x="278" 
d="M31 -190v100q27 0 37.5 5t10.5 25v624h130v-567v-23t1 -25q0 -63 -14 -90.5t-38 -39t-85 -11.5h-20q-15 2 -22 2zM209 632h-130v118h130v-118z" />
    <glyph glyph-name="onequarter" unicode="&#x458;" horiz-adv-x="278" 
d="M31 -190v100q27 0 37.5 5t10.5 25v624h130v-567v-23t1 -25q0 -63 -14 -90.5t-38 -39t-85 -11.5h-20q-15 2 -22 2zM209 632h-130v118h130v-118z" />
    <glyph glyph-name="onehalf" unicode="&#xbd;" horiz-adv-x="556" 
d="M489 522h-135q0 64 -12 92q-18 41 -70 41q-38 0 -57.5 -16t-19.5 -54t23 -64q14 -16 57 -43t87 -58q58 -41 83 -65q34 -34 48.5 -70.5t14.5 -86.5q0 -104 -63 -160t-168 -56q-121 0 -177 63q-51 57 -51 165v55h140v-44q0 -60 19.5 -93t68.5 -33q87 0 87 88q0 32 -14 55.5
t-39 42t-90 61.5q-96 63 -134 113q-36 53 -36 115q0 198 220 198q113 0 167 -58q51 -55 51 -188z" />
    <glyph glyph-name="onehalf" unicode="&#x405;" horiz-adv-x="556" 
d="M489 522h-135q0 64 -12 92q-18 41 -70 41q-38 0 -57.5 -16t-19.5 -54t23 -64q14 -16 57 -43t87 -58q58 -41 83 -65q34 -34 48.5 -70.5t14.5 -86.5q0 -104 -63 -160t-168 -56q-121 0 -177 63q-51 57 -51 165v55h140v-44q0 -60 19.5 -93t68.5 -33q87 0 87 88q0 32 -14 55.5
t-39 42t-90 61.5q-96 63 -134 113q-36 53 -36 115q0 198 220 198q113 0 167 -58q51 -55 51 -188z" />
    <glyph glyph-name="threequarters" unicode="&#xbe;" horiz-adv-x="444" 
d="M28 186h130q-1 -8 -1.5 -17.5t-0.5 -13.5q0 -47 21 -62q11 -8 41 -8q25 0 40.5 13.5t15.5 35.5q0 4 -2 14q0 16 -13 30q-6 6 -51 37l-71 49q-53 37 -78 75q-29 45 -29 103q0 65 50 101t144 36q93 0 137 -47t44 -140h-130q0 48 -13 67.5t-47 19.5q-24 0 -39.5 -11.5
t-15.5 -34.5q0 -22 15 -38q9 -10 34 -27l106 -72q28 -16 55 -48q31 -37 33 -56.5t2.5 -29t0.5 -15.5q0 -73 -39 -113q-48 -49 -156 -49q-69 0 -116 31q-68 45 -68 142q0 18 1 28z" />
    <glyph glyph-name="threequarters" unicode="&#x455;" horiz-adv-x="444" 
d="M28 186h130q-1 -8 -1.5 -17.5t-0.5 -13.5q0 -47 21 -62q11 -8 41 -8q25 0 40.5 13.5t15.5 35.5q0 4 -2 14q0 16 -13 30q-6 6 -51 37l-71 49q-53 37 -78 75q-29 45 -29 103q0 65 50 101t144 36q93 0 137 -47t44 -140h-130q0 48 -13 67.5t-47 19.5q-24 0 -39.5 -11.5
t-15.5 -34.5q0 -22 15 -38q9 -10 34 -27l106 -72q28 -16 55 -48q31 -37 33 -56.5t2.5 -29t0.5 -15.5q0 -73 -39 -113q-48 -49 -156 -49q-69 0 -116 31q-68 45 -68 142q0 18 1 28z" />
    <glyph glyph-name="questiondown" unicode="&#xbf;" horiz-adv-x="278" 
d="M204 0h-130v564h130v-564zM105 644h-127v115h127v-115zM301 644h-128v115h128v-115z" />
    <glyph glyph-name="questiondown" unicode="&#x457;" horiz-adv-x="278" 
d="M204 0h-130v564h130v-564zM105 644h-127v115h127v-115zM301 644h-128v115h128v-115z" />
    <glyph glyph-name="Agrave" unicode="&#xc0;" horiz-adv-x="556" 
d="M159 0h-150l179 750h189l170 -750h-150l-37 190h-164zM260 513l-42 -213h120l-38 213q-4 20 -6.5 38.5t-7.5 65.5l-5 50l-7 -50q-4 -35 -6.5 -57.5t-7.5 -46.5z" />
    <glyph glyph-name="Agrave" unicode="&#x410;" horiz-adv-x="556" 
d="M159 0h-150l179 750h189l170 -750h-150l-37 190h-164zM260 513l-42 -213h120l-38 213q-4 20 -6.5 38.5t-7.5 65.5l-5 50l-7 -50q-4 -35 -6.5 -57.5t-7.5 -46.5z" />
    <glyph glyph-name="Aacute" unicode="&#xc1;" horiz-adv-x="556" 
d="M208 110h47q62 0 87.5 23.5t25.5 86.5q0 64 -26.5 90.5t-75.5 26.5h-58v-227zM462 750v-110h-254v-193h77q46 0 86 -10t71 -35q38 -30 54 -76.5t16 -101.5q0 -98 -52 -158q-58 -66 -163 -66h-229v750h394z" />
    <glyph glyph-name="Aacute" unicode="&#x411;" horiz-adv-x="556" 
d="M208 110h47q62 0 87.5 23.5t25.5 86.5q0 64 -26.5 90.5t-75.5 26.5h-58v-227zM462 750v-110h-254v-193h77q46 0 86 -10t71 -35q38 -30 54 -76.5t16 -101.5q0 -98 -52 -158q-58 -66 -163 -66h-229v750h394z" />
    <glyph glyph-name="Acircumflex" unicode="&#xc2;" horiz-adv-x="556" 
d="M205 110h30h33q17 0 27.5 1t23.5 7q26 12 36 44q7 22 7 60q0 65 -18 88q-21 27 -85 27h-54v-227zM205 447h26h13q34 0 48 3q26 6 39 23q8 12 11.5 32.5t3.5 48.5q0 46 -14 64q-17 22 -62 22h-65v-193zM312 0h-247v750h226q57 0 87 -8q45 -12 72 -47q21 -27 29 -59.5
t8 -75.5q0 -58 -16 -92q-21 -46 -74 -65q57 -9 83 -54.5t26 -121.5q0 -25 -2 -48t-8 -44q-23 -72 -65.5 -103.5t-118.5 -31.5z" />
    <glyph glyph-name="Acircumflex" unicode="&#x412;" horiz-adv-x="556" 
d="M205 110h30h33q17 0 27.5 1t23.5 7q26 12 36 44q7 22 7 60q0 65 -18 88q-21 27 -85 27h-54v-227zM205 447h26h13q34 0 48 3q26 6 39 23q8 12 11.5 32.5t3.5 48.5q0 46 -14 64q-17 22 -62 22h-65v-193zM312 0h-247v750h226q57 0 87 -8q45 -12 72 -47q21 -27 29 -59.5
t8 -75.5q0 -58 -16 -92q-21 -46 -74 -65q57 -9 83 -54.5t26 -121.5q0 -25 -2 -48t-8 -44q-23 -72 -65.5 -103.5t-118.5 -31.5z" />
    <glyph glyph-name="Atilde" unicode="&#xc3;" 
d="M208 0h-140v750h400v-110h-260v-640z" />
    <glyph glyph-name="Atilde" unicode="&#x413;" 
d="M208 0h-140v750h400v-110h-260v-640z" />
    <glyph glyph-name="Adieresis" unicode="&#xc4;" horiz-adv-x="592" 
d="M567 -108h-130v108h-304v-108h-129v218q14 0 25 1.5t18 4.5q28 16 36 62.5t8 142.5v429h433v-640h43v-218zM384 110v530h-163v-322q0 -92 -9.5 -135t-28.5 -73h201z" />
    <glyph glyph-name="Adieresis" unicode="&#x414;" horiz-adv-x="592" 
d="M567 -108h-130v108h-304v-108h-129v218q14 0 25 1.5t18 4.5q28 16 36 62.5t8 142.5v429h433v-640h43v-218zM384 110v530h-163v-322q0 -92 -9.5 -135t-28.5 -73h201z" />
    <glyph glyph-name="Aring" unicode="&#xc5;" 
d="M458 0h-394v750h394v-110h-254v-189h234v-110h-234v-231h254v-110z" />
    <glyph glyph-name="Aring" unicode="&#x415;" 
d="M458 0h-394v750h394v-110h-254v-189h234v-110h-234v-231h254v-110z" />
    <glyph glyph-name="AE" unicode="&#xc6;" horiz-adv-x="836" 
d="M488 750v-333q18 43 42 91q8 16 48 89l82 153h158l-185 -322l194 -428h-158l-132 296l-49 -81v-215h-140v215l-49 81l-132 -296h-158l194 428l-185 322h158l82 -153q37 -68 58 -111q18 -38 30 -69l2 333h140z" />
    <glyph glyph-name="AE" unicode="&#x416;" horiz-adv-x="836" 
d="M488 750v-333q18 43 42 91q8 16 48 89l82 153h158l-185 -322l194 -428h-158l-132 296l-49 -81v-215h-140v215l-49 81l-132 -296h-158l194 428l-185 322h158l82 -153q37 -68 58 -111q18 -38 30 -69l2 333h140z" />
    <glyph glyph-name="Ccedilla" unicode="&#xc7;" horiz-adv-x="555" 
d="M197 337v110h67q48 0 74.5 28.5t26.5 86.5q0 43 -22 70.5t-66 27.5q-52 0 -73 -42q-14 -28 -14 -78h-136l1 47q0 80 61 130.5t161 50.5q101 0 162 -51.5t61 -146.5q0 -57 -22 -96q-28 -50 -89 -72q65 -21 98 -77q29 -49 29 -119q0 -120 -75 -177q-60 -46 -160 -46
q-102 0 -161 42q-72 51 -72 158l-2 51h139q0 -66 13 -95q22 -48 83 -48q48 0 74 37q22 32 22 80q0 60 -28.5 94.5t-81.5 34.5h-70z" />
    <glyph glyph-name="Ccedilla" unicode="&#x417;" horiz-adv-x="555" 
d="M197 337v110h67q48 0 74.5 28.5t26.5 86.5q0 43 -22 70.5t-66 27.5q-52 0 -73 -42q-14 -28 -14 -78h-136l1 47q0 80 61 130.5t161 50.5q101 0 162 -51.5t61 -146.5q0 -57 -22 -96q-28 -50 -89 -72q65 -21 98 -77q29 -49 29 -119q0 -120 -75 -177q-60 -46 -160 -46
q-102 0 -161 42q-72 51 -72 158l-2 51h139q0 -66 13 -95q22 -48 83 -48q48 0 74 37q22 32 22 80q0 60 -28.5 94.5t-81.5 34.5h-70z" />
    <glyph glyph-name="Egrave" unicode="&#xc8;" horiz-adv-x="611" 
d="M543 0h-140v141q0 32 3.5 104.5t3.5 105.5q0 38 10 139q5 51 5 75q-30 -100 -50 -160q-24 -70 -52 -138l-109 -267h-146v750h140v-147q0 -35 -2 -77q-5 -105 -5 -134l-14 -213q27 93 51.5 164t50.5 134l109 273h145v-750z" />
    <glyph glyph-name="Egrave" unicode="&#x418;" horiz-adv-x="611" 
d="M543 0h-140v141q0 32 3.5 104.5t3.5 105.5q0 38 10 139q5 51 5 75q-30 -100 -50 -160q-24 -70 -52 -138l-109 -267h-146v750h140v-147q0 -35 -2 -77q-5 -105 -5 -134l-14 -213q27 93 51.5 164t50.5 134l109 273h145v-750z" />
    <glyph glyph-name="Eacute" unicode="&#xc9;" horiz-adv-x="611" 
d="M208 603q0 -35 -2 -77q-5 -105 -5 -134l-14 -213q27 93 51.5 164t50.5 134l109 273h145v-750h-140v141q0 32 3.5 104.5t3.5 105.5q0 38 10 139q5 51 5 75q-30 -100 -50 -160q-24 -70 -52 -138l-109 -267h-146v750h140v-147zM411 966h65q-9 -70 -52.5 -107.5t-115.5 -37.5
q-78 0 -123 40.5t-45 104.5h65q4 -35 30 -52.5t68 -17.5q52 0 77.5 16.5t30.5 53.5z" />
    <glyph glyph-name="Eacute" unicode="&#x419;" horiz-adv-x="611" 
d="M208 603q0 -35 -2 -77q-5 -105 -5 -134l-14 -213q27 93 51.5 164t50.5 134l109 273h145v-750h-140v141q0 32 3.5 104.5t3.5 105.5q0 38 10 139q5 51 5 75q-30 -100 -50 -160q-24 -70 -52 -138l-109 -267h-146v750h140v-147zM411 966h65q-9 -70 -52.5 -107.5t-115.5 -37.5
q-78 0 -123 40.5t-45 104.5h65q4 -35 30 -52.5t68 -17.5q52 0 77.5 16.5t30.5 53.5z" />
    <glyph glyph-name="Ecircumflex" unicode="&#xca;" horiz-adv-x="556" 
d="M208 0h-140v750h140v-333q18 43 42 91q8 16 48 89l82 153h158l-185 -322l194 -428h-158l-132 296l-49 -81v-215z" />
    <glyph glyph-name="Ecircumflex" unicode="&#x41a;" horiz-adv-x="556" 
d="M208 0h-140v750h140v-333q18 43 42 91q8 16 48 89l82 153h158l-185 -322l194 -428h-158l-132 296l-49 -81v-215z" />
    <glyph glyph-name="Edieresis" unicode="&#xcb;" horiz-adv-x="592" 
d="M524 0h-140v640h-163v-324q0 -175 -27 -236q-44 -98 -187 -98v122q57 0 73 53q11 37 11 162v431h433v-750z" />
    <glyph glyph-name="Edieresis" unicode="&#x41b;" horiz-adv-x="592" 
d="M524 0h-140v640h-163v-324q0 -175 -27 -236q-44 -98 -187 -98v122q57 0 73 53q11 37 11 162v431h433v-750z" />
    <glyph glyph-name="Igrave" unicode="&#xcc;" horiz-adv-x="778" 
d="M207 236v-236h-140v750h223l75 -348q16 -76 26 -173q5 48 10.5 91t13.5 82l75 348h222v-750h-140v236q0 83 3 167q9 251 9 280l-152 -683h-85l-147 683h-5q0 -83 3 -167q9 -251 9 -280z" />
    <glyph glyph-name="Igrave" unicode="&#x41c;" horiz-adv-x="778" 
d="M207 236v-236h-140v750h223l75 -348q16 -76 26 -173q5 48 10.5 91t13.5 82l75 348h222v-750h-140v236q0 83 3 167q9 251 9 280l-152 -683h-85l-147 683h-5q0 -83 3 -167q9 -251 9 -280z" />
    <glyph glyph-name="Iacute" unicode="&#xcd;" horiz-adv-x="611" 
d="M208 0h-140v750h140v-297h196v297h140v-750h-140v343h-196v-343z" />
    <glyph glyph-name="Iacute" unicode="&#x41d;" horiz-adv-x="611" 
d="M208 0h-140v750h140v-297h196v297h140v-750h-140v343h-196v-343z" />
    <glyph glyph-name="Icircumflex" unicode="&#xce;" horiz-adv-x="611" 
d="M61 328v107q0 170 38 238q53 95 207 95q153 0 206 -95q39 -69 39 -238v-107q0 -120 -12 -178q-17 -84 -66 -123q-56 -45 -167 -45q-109 0 -165 45q-50 40 -67 122q-13 62 -13 179zM205 466v-208q0 -69 14 -104q24 -59 87 -59q66 0 88 60q13 35 13 115v192q0 82 -11 119
q-22 74 -90 74q-63 0 -86 -58q-15 -37 -15 -106v-25z" />
    <glyph glyph-name="Icircumflex" unicode="&#x41e;" horiz-adv-x="611" 
d="M61 328v107q0 170 38 238q53 95 207 95q153 0 206 -95q39 -69 39 -238v-107q0 -120 -12 -178q-17 -84 -66 -123q-56 -45 -167 -45q-109 0 -165 45q-50 40 -67 122q-13 62 -13 179zM205 466v-208q0 -69 14 -104q24 -59 87 -59q66 0 88 60q13 35 13 115v192q0 82 -11 119
q-22 74 -90 74q-63 0 -86 -58q-15 -37 -15 -106v-25z" />
    <glyph glyph-name="Idieresis" unicode="&#xcf;" horiz-adv-x="611" 
d="M208 0h-140v750h476v-750h-140v640h-196v-640z" />
    <glyph glyph-name="Idieresis" unicode="&#x41f;" horiz-adv-x="611" 
d="M208 0h-140v750h476v-750h-140v640h-196v-640z" />
    <glyph glyph-name="Eth" unicode="&#xd0;" horiz-adv-x="556" 
d="M208 640v-216h75q50 0 74 24q28 28 28 93q0 62 -24 80.5t-89 18.5h-64zM208 0h-140v750h286q93 0 138 -67q37 -55 37 -146q0 -54 -15 -97q-18 -52 -55 -81q-30 -24 -72 -34.5t-85 -10.5h-94v-314z" />
    <glyph glyph-name="Eth" unicode="&#x420;" horiz-adv-x="556" 
d="M208 640v-216h75q50 0 74 24q28 28 28 93q0 62 -24 80.5t-89 18.5h-64zM208 0h-140v750h286q93 0 138 -67q37 -55 37 -146q0 -54 -15 -97q-18 -52 -55 -81q-30 -24 -72 -34.5t-85 -10.5h-94v-314z" />
    <glyph glyph-name="Ntilde" unicode="&#xd1;" horiz-adv-x="556" 
d="M371 267h141l-3 -43q0 -111 -46 -172q-53 -70 -163 -70q-109 0 -165 45q-50 40 -67 122q-13 62 -13 179v107q0 170 38 238q53 95 207 95q95 0 150 -50t55 -144q3 -29 3 -57h-138q-11 86 -11 87q-14 51 -59 51q-63 0 -86 -58q-15 -37 -15 -106v-25v-208q0 -69 14 -104
q24 -59 87 -59q49 0 64 68q7 32 7 104z" />
    <glyph glyph-name="Ntilde" unicode="&#x421;" horiz-adv-x="556" 
d="M371 267h141l-3 -43q0 -111 -46 -172q-53 -70 -163 -70q-109 0 -165 45q-50 40 -67 122q-13 62 -13 179v107q0 170 38 238q53 95 207 95q95 0 150 -50t55 -144q3 -29 3 -57h-138q-11 86 -11 87q-14 51 -59 51q-63 0 -86 -58q-15 -37 -15 -106v-25v-208q0 -69 14 -104
q24 -59 87 -59q49 0 64 68q7 32 7 104z" />
    <glyph glyph-name="Ograve" unicode="&#xd2;" 
d="M17 640v110h467v-110h-163v-640h-140v640h-164z" />
    <glyph glyph-name="Ograve" unicode="&#x422;" 
d="M17 640v110h467v-110h-163v-640h-140v640h-164z" />
    <glyph glyph-name="Oacute" unicode="&#xd3;" horiz-adv-x="556" 
d="M11 750h154l103 -279q9 -24 17 -60t12 -63q13 67 16 79q9 42 22 86l68 237h147l-185 -572q-34 -106 -62 -142q-42 -54 -120 -54q-28 0 -39 1q-14 3 -20 3v121q8 -2 21 -3t24 -1q39 0 57 47l17 46z" />
    <glyph glyph-name="Oacute" unicode="&#x423;" horiz-adv-x="556" 
d="M11 750h154l103 -279q9 -24 17 -60t12 -63q13 67 16 79q9 42 22 86l68 237h147l-185 -572q-34 -106 -62 -142q-42 -54 -120 -54q-28 0 -39 1q-14 3 -20 3v121q8 -2 21 -3t24 -1q39 0 57 47l17 46z" />
    <glyph glyph-name="Ocircumflex" unicode="&#xd4;" horiz-adv-x="796" 
d="M328 640v110h139v-110h50q133 0 192 -70q54 -64 54 -192t-53 -194q-59 -74 -183 -74h-60v-110h-139v110h-60q-123 0 -182 73q-54 67 -54 195q0 127 54 191q60 71 193 71h49zM328 219v312h-36q-66 0 -93.5 -39t-27.5 -116q0 -79 31 -118t103 -39h23zM467 531v-312h24
q71 0 102 38.5t31 118.5q0 78 -25 114q-28 41 -95 41h-37z" />
    <glyph glyph-name="Ocircumflex" unicode="&#x424;" horiz-adv-x="796" 
d="M328 640v110h139v-110h50q133 0 192 -70q54 -64 54 -192t-53 -194q-59 -74 -183 -74h-60v-110h-139v110h-60q-123 0 -182 73q-54 67 -54 195q0 127 54 191q60 71 193 71h49zM328 219v312h-36q-66 0 -93.5 -39t-27.5 -116q0 -79 31 -118t103 -39h23zM467 531v-312h24
q71 0 102 38.5t31 118.5q0 78 -25 114q-28 41 -95 41h-37z" />
    <glyph glyph-name="Otilde" unicode="&#xd5;" horiz-adv-x="556" 
d="M359 380l186 -380h-160l-80 183q-20 47 -29 95q-5 -30 -13 -54q-4 -12 -37 -86l-62 -138h-153l184 380l-177 370h157l76 -170q13 -30 18 -46q9 -27 9 -48q2 37 25 87l24 50l54 127h158z" />
    <glyph glyph-name="Otilde" unicode="&#x425;" horiz-adv-x="556" 
d="M359 380l186 -380h-160l-80 183q-20 47 -29 95q-5 -30 -13 -54q-4 -12 -37 -86l-62 -138h-153l184 380l-177 370h157l76 -170q13 -30 18 -46q9 -27 9 -48q2 37 25 87l24 50l54 127h158z" />
    <glyph glyph-name="Odieresis" unicode="&#xd6;" horiz-adv-x="611" 
d="M586 -108h-130v108h-389v750h140v-640h196v640h140v-640h43v-218z" />
    <glyph glyph-name="Odieresis" unicode="&#x426;" horiz-adv-x="611" 
d="M586 -108h-130v108h-389v750h140v-640h196v640h140v-640h43v-218z" />
    <glyph glyph-name="multiply" unicode="&#xd7;" horiz-adv-x="611" 
d="M520 0h-140v332q-43 -20 -77.5 -29.5t-80.5 -9.5q-73 0 -119 48t-46 131v278h139v-267q0 -31 21.5 -47.5t51.5 -16.5q29 0 58.5 9t52.5 24v298h140v-750z" />
    <glyph glyph-name="multiply" unicode="&#x427;" horiz-adv-x="611" 
d="M520 0h-140v332q-43 -20 -77.5 -29.5t-80.5 -9.5q-73 0 -119 48t-46 131v278h139v-267q0 -31 21.5 -47.5t51.5 -16.5q29 0 58.5 9t52.5 24v298h140v-750z" />
    <glyph glyph-name="Oslash" unicode="&#xd8;" horiz-adv-x="833" 
d="M346 110v640h140v-640h138v640h140v-750h-696v750h140v-640h138z" />
    <glyph glyph-name="Oslash" unicode="&#x428;" horiz-adv-x="833" 
d="M346 110v640h140v-640h138v640h140v-750h-696v750h140v-640h138z" />
    <glyph glyph-name="Ugrave" unicode="&#xd9;" horiz-adv-x="832" 
d="M807 -108h-130v108h-609v750h140v-640h138v640h140v-640h138v640h140v-640h43v-218z" />
    <glyph glyph-name="Ugrave" unicode="&#x429;" horiz-adv-x="832" 
d="M807 -108h-130v108h-609v750h140v-640h138v640h140v-640h138v640h140v-640h43v-218z" />
    <glyph glyph-name="Uacute" unicode="&#xda;" horiz-adv-x="629" 
d="M271 110h64q62 0 87.5 23.5t25.5 86.5q0 64 -26.5 90.5t-75.5 26.5h-75v-227zM131 640h-114v110h254v-303h94q46 0 86 -10t71 -35q38 -30 54 -76.5t16 -101.5q0 -98 -52 -158q-58 -66 -163 -66h-246v640z" />
    <glyph glyph-name="Uacute" unicode="&#x42a;" horiz-adv-x="629" 
d="M271 110h64q62 0 87.5 23.5t25.5 86.5q0 64 -26.5 90.5t-75.5 26.5h-75v-227zM131 640h-114v110h254v-303h94q46 0 86 -10t71 -35q38 -30 54 -76.5t16 -101.5q0 -98 -52 -158q-58 -66 -163 -66h-246v640z" />
    <glyph glyph-name="Ucircumflex" unicode="&#xdb;" horiz-adv-x="814" 
d="M746 0h-140v750h140v-750zM208 750v-303h94q46 0 86 -10t71 -35q38 -30 54 -76.5t16 -101.5q0 -98 -52 -158q-58 -66 -163 -66h-246v750h140zM208 110h64q62 0 87.5 23.5t25.5 86.5q0 64 -26.5 90.5t-75.5 26.5h-75v-227z" />
    <glyph glyph-name="Ucircumflex" unicode="&#x42b;" horiz-adv-x="814" 
d="M746 0h-140v750h140v-750zM208 750v-303h94q46 0 86 -10t71 -35q38 -30 54 -76.5t16 -101.5q0 -98 -52 -158q-58 -66 -163 -66h-246v750h140zM208 110h64q62 0 87.5 23.5t25.5 86.5q0 64 -26.5 90.5t-75.5 26.5h-75v-227z" />
    <glyph glyph-name="Udieresis" unicode="&#xdc;" horiz-adv-x="556" 
d="M208 750v-303h94q46 0 86 -10t71 -35q38 -30 54 -76.5t16 -101.5q0 -98 -52 -158q-58 -66 -163 -66h-246v750h140zM208 110h64q62 0 87.5 23.5t25.5 86.5q0 64 -26.5 90.5t-75.5 26.5h-75v-227z" />
    <glyph glyph-name="Udieresis" unicode="&#x42c;" horiz-adv-x="556" 
d="M208 750v-303h94q46 0 86 -10t71 -35q38 -30 54 -76.5t16 -101.5q0 -98 -52 -158q-58 -66 -163 -66h-246v750h140zM208 110h64q62 0 87.5 23.5t25.5 86.5q0 64 -26.5 90.5t-75.5 26.5h-75v-227z" />
    <glyph glyph-name="Yacute" unicode="&#xdd;" horiz-adv-x="573" 
d="M374 447v19v25q0 71 -14 106q-23 58 -87 58q-40 0 -62.5 -36.5t-22.5 -78.5h-140l3 34q0 93 62 143.5t160 50.5q153 0 206 -95q39 -69 39 -238v-107q0 -120 -12 -178q-17 -84 -66 -123q-56 -45 -167 -45q-115 0 -173 69q-54 65 -54 183h140q0 -52 19 -90q24 -49 68 -49
q63 0 86 58q15 37 15 105v79h-170v110h170z" />
    <glyph glyph-name="Yacute" unicode="&#x42d;" horiz-adv-x="573" 
d="M374 447v19v25q0 71 -14 106q-23 58 -87 58q-40 0 -62.5 -36.5t-22.5 -78.5h-140l3 34q0 93 62 143.5t160 50.5q153 0 206 -95q39 -69 39 -238v-107q0 -120 -12 -178q-17 -84 -66 -123q-56 -45 -167 -45q-115 0 -173 69q-54 65 -54 183h140q0 -52 19 -90q24 -49 68 -49
q63 0 86 58q15 37 15 105v79h-170v110h170z" />
    <glyph glyph-name="Thorn" unicode="&#xde;" horiz-adv-x="832" 
d="M444 466v-208q0 -74 10 -104q20 -59 82 -59q57 0 78 47q14 31 14 97v31v192v35q0 69 -13 103q-21 55 -79 55q-55 0 -77 -44q-16 -32 -16 -91v-28.5t1 -25.5zM300 337h-92v-337h-140v750h140v-303h92q0 162 39 230q52 91 197 91q146 0 198 -95q38 -70 38 -238v-107
q0 -118 -12 -178q-17 -84 -64 -123q-54 -45 -160 -45q-105 0 -159 45q-48 40 -65 122q-12 59 -12 179v9z" />
    <glyph glyph-name="Thorn" unicode="&#x42e;" horiz-adv-x="832" 
d="M444 466v-208q0 -74 10 -104q20 -59 82 -59q57 0 78 47q14 31 14 97v31v192v35q0 69 -13 103q-21 55 -79 55q-55 0 -77 -44q-16 -32 -16 -91v-28.5t1 -25.5zM300 337h-92v-337h-140v750h140v-303h92q0 162 39 230q52 91 197 91q146 0 198 -95q38 -70 38 -238v-107
q0 -118 -12 -178q-17 -84 -64 -123q-54 -45 -160 -45q-105 0 -159 45q-48 40 -65 122q-12 59 -12 179v9z" />
    <glyph glyph-name="germandbls" unicode="&#xdf;" horiz-adv-x="611" 
d="M543 0h-140v323h-25q-30 0 -60 -0.5t-60.5 -9.5t-40.5 -49q-6 -23 -6 -74v-44q0 -52 -2.5 -85.5t-12.5 -60.5h-154v14q18 11 24 76.5t6 133.5v27q0 59 22 91q26 37 86 45q-65 10 -93 66q-22 44 -22 117q0 98 61 142q52 38 152 38h265v-750zM403 433v207h-104
q-44 0 -64 -18q-24 -22 -24 -81q0 -54 22.5 -81t59.5 -27h110z" />
    <glyph glyph-name="germandbls" unicode="&#x42f;" horiz-adv-x="611" 
d="M543 0h-140v323h-25q-30 0 -60 -0.5t-60.5 -9.5t-40.5 -49q-6 -23 -6 -74v-44q0 -52 -2.5 -85.5t-12.5 -60.5h-154v14q18 11 24 76.5t6 133.5v27q0 59 22 91q26 37 86 45q-65 10 -93 66q-22 44 -22 117q0 98 61 142q52 38 152 38h265v-750zM403 433v207h-104
q-44 0 -64 -18q-24 -22 -24 -81q0 -54 22.5 -81t59.5 -27h110z" />
    <glyph glyph-name="agrave" unicode="&#xe0;" 
d="M440 0h-123q-5 9 -7 20t-2 23q1 10 1 15q-50 -73 -116 -73q-78 0 -114.5 40.5t-36.5 128.5q0 85 58 133q33 27 135 69q35 15 51 31.5t16 40.5q0 10 -3.5 25t-17 20.5t-43.5 5.5q-41 0 -54.5 -20t-13.5 -62h-124q0 90 37 131q46 51 160 51q118 0 159 -55q27 -36 27 -112
v-333q0 -18 3 -38.5t8 -40.5zM299 236v61q-53 -36 -105 -72q-13 -11 -17.5 -28.5t-4.5 -39.5q0 -35 13 -53.5t48 -18.5q40 0 56 37q11 26 11 76q0 12 -0.5 21.5t-0.5 16.5z" />
    <glyph glyph-name="agrave" unicode="&#x430;" 
d="M440 0h-123q-5 9 -7 20t-2 23q1 10 1 15q-50 -73 -116 -73q-78 0 -114.5 40.5t-36.5 128.5q0 85 58 133q33 27 135 69q35 15 51 31.5t16 40.5q0 10 -3.5 25t-17 20.5t-43.5 5.5q-41 0 -54.5 -20t-13.5 -62h-124q0 90 37 131q46 51 160 51q118 0 159 -55q27 -36 27 -112
v-333q0 -18 3 -38.5t8 -40.5zM299 236v61q-53 -36 -105 -72q-13 -11 -17.5 -28.5t-4.5 -39.5q0 -35 13 -53.5t48 -18.5q40 0 56 37q11 26 11 76q0 12 -0.5 21.5t-0.5 16.5z" />
    <glyph glyph-name="aacute" unicode="&#xe1;" 
d="M183 372v-188q0 -47 4 -61q11 -38 65 -38q42 0 55 23q10 18 10 76v188q0 67 -15 87t-50 20q-46 0 -60 -33q-9 -21 -9 -74zM53 458q0 118 37 187q43 80 137 96q54 9 81 21q34 15 34 33h94q0 -66 -39.5 -100.5t-120.5 -52.5q-61 -13 -95.5 -47.5t-34.5 -92.5q25 37 54 55
q35 22 82 22q105 0 139 -80q26 -61 26 -237q0 -157 -34 -212q-40 -65 -161 -65q-122 0 -163 65q-36 57 -36 212v196z" />
    <glyph glyph-name="aacute" unicode="&#x431;" 
d="M183 372v-188q0 -47 4 -61q11 -38 65 -38q42 0 55 23q10 18 10 76v188q0 67 -15 87t-50 20q-46 0 -60 -33q-9 -21 -9 -74zM53 458q0 118 37 187q43 80 137 96q54 9 81 21q34 15 34 33h94q0 -66 -39.5 -100.5t-120.5 -52.5q-61 -13 -95.5 -47.5t-34.5 -92.5q25 37 54 55
q35 22 82 22q105 0 139 -80q26 -61 26 -237q0 -157 -34 -212q-40 -65 -161 -65q-122 0 -163 65q-36 57 -36 212v196z" />
    <glyph glyph-name="acircumflex" unicode="&#xe2;" 
d="M61 0v564h184q87 0 135 -33q54 -37 54 -111q0 -43 -22 -77.5t-59 -44.5q40 -10 66 -48t26 -88q0 -87 -54 -126q-50 -36 -147 -36h-183zM191 468v-128h25q50 0 66 10q22 14 22 60q0 37 -21 47.5t-68 10.5h-24zM191 245v-149h28q53 0 73 14q24 17 24 63q0 48 -26 62
q-18 10 -74 10h-25z" />
    <glyph glyph-name="acircumflex" unicode="&#x432;" 
d="M61 0v564h184q87 0 135 -33q54 -37 54 -111q0 -43 -22 -77.5t-59 -44.5q40 -10 66 -48t26 -88q0 -87 -54 -126q-50 -36 -147 -36h-183zM191 468v-128h25q50 0 66 10q22 14 22 60q0 37 -21 47.5t-68 10.5h-24zM191 245v-149h28q53 0 73 14q24 17 24 63q0 48 -26 62
q-18 10 -74 10h-25z" />
    <glyph glyph-name="atilde" unicode="&#xe3;" horiz-adv-x="407" 
d="M380 464h-190v-464h-129v564h319v-100z" />
    <glyph glyph-name="atilde" unicode="&#x433;" horiz-adv-x="407" 
d="M380 464h-190v-464h-129v564h319v-100z" />
    <glyph glyph-name="adieresis" unicode="&#xe4;" 
d="M89 564h350v-464h35v-208h-120v108h-216v-108h-120v208h10q40 4 52 47q9 32 9 119v298zM309 464h-100v-208q0 -56 -5 -92t-25 -64h130v364z" />
    <glyph glyph-name="adieresis" unicode="&#x434;" 
d="M89 564h350v-464h35v-208h-120v108h-216v-108h-120v208h10q40 4 52 47q9 32 9 119v298zM309 464h-100v-208q0 -56 -5 -92t-25 -64h130v364z" />
    <glyph glyph-name="aring" unicode="&#xe5;" 
d="M52 222v148q0 101 48 155t142 54q126 0 168 -66q32 -50 32 -182v-76h-260v-82q0 -52 19 -72q15 -16 49 -16q35 0 47.5 24.5t12.5 81.5h130q0 -99 -40 -150q-44 -56 -140 -56q-112 0 -160 55.5t-48 181.5zM182 355h130v49q0 43 -14 59t-54 16q-43 0 -55 -31q-7 -18 -7 -70
v-23z" />
    <glyph glyph-name="aring" unicode="&#x435;" 
d="M52 222v148q0 101 48 155t142 54q126 0 168 -66q32 -50 32 -182v-76h-260v-82q0 -52 19 -72q15 -16 49 -16q35 0 47.5 24.5t12.5 81.5h130q0 -99 -40 -150q-44 -56 -140 -56q-112 0 -160 55.5t-48 181.5zM182 355h130v49q0 43 -14 59t-54 16q-43 0 -55 -31q-7 -18 -7 -70
v-23z" />
    <glyph glyph-name="ae" unicode="&#xe6;" horiz-adv-x="667" 
d="M398 564v-153l-2 -71l125 224h142l-142 -227l138 -337h-145l-81 230l-35 -58v-172h-130v172l-35 58l-81 -230h-145l138 337l-142 227h142l123 -224v71v153h130z" />
    <glyph glyph-name="ae" unicode="&#x436;" horiz-adv-x="667" 
d="M398 564v-153l-2 -71l125 224h142l-142 -227l138 -337h-145l-81 230l-35 -58v-172h-130v172l-35 58l-81 -230h-145l138 337l-142 227h142l123 -224v71v153h130z" />
    <glyph glyph-name="ccedilla" unicode="&#xe7;" horiz-adv-x="481" 
d="M180 241v99h35q40 0 58 17t18 58q0 65 -58 65q-34 0 -46.5 -25t-12.5 -61h-125l1 44q0 60 51.5 100.5t132.5 40.5q84 0 134 -40.5t50 -114.5q0 -43 -18 -74q-21 -36 -66 -53q48 -17 72.5 -56t24.5 -86q0 -88 -61 -132q-52 -38 -135 -38q-76 0 -127 34q-60 40 -67 120
l-1 46h128q0 -45 11 -68q16 -33 56 -33q34 0 51 22q14 18 14 51q0 39 -21.5 61.5t-62.5 22.5h-36z" />
    <glyph glyph-name="ccedilla" unicode="&#x437;" horiz-adv-x="481" 
d="M180 241v99h35q40 0 58 17t18 58q0 65 -58 65q-34 0 -46.5 -25t-12.5 -61h-125l1 44q0 60 51.5 100.5t132.5 40.5q84 0 134 -40.5t50 -114.5q0 -43 -18 -74q-21 -36 -66 -53q48 -17 72.5 -56t24.5 -86q0 -88 -61 -132q-52 -38 -135 -38q-76 0 -127 34q-60 40 -67 120
l-1 46h128q0 -45 11 -68q16 -33 56 -33q34 0 51 22q14 18 14 51q0 39 -21.5 61.5t-62.5 22.5h-36z" />
    <glyph glyph-name="egrave" unicode="&#xe8;" 
d="M441 0h-125l9 270l8 107l-138 -377h-136v564h126l-10 -269l-7 -108l136 377h137v-564z" />
    <glyph glyph-name="egrave" unicode="&#x438;" 
d="M441 0h-125l9 270l8 107l-138 -377h-136v564h126l-10 -269l-7 -108l136 377h137v-564z" />
    <glyph glyph-name="eacute" unicode="&#xe9;" 
d="M356 780h65q-9 -70 -52.5 -107.5t-115.5 -37.5q-78 0 -123 40.5t-45 104.5h65q4 -35 30 -52.5t68 -17.5q52 0 77.5 16.5t30.5 53.5zM441 0h-125l9 270l8 107l-138 -377h-136v564h126l-10 -269l-7 -108l136 377h137v-564z" />
    <glyph glyph-name="eacute" unicode="&#x439;" 
d="M356 780h65q-9 -70 -52.5 -107.5t-115.5 -37.5q-78 0 -123 40.5t-45 104.5h65q4 -35 30 -52.5t68 -17.5q52 0 77.5 16.5t30.5 53.5zM441 0h-125l9 270l8 107l-138 -377h-136v564h126l-10 -269l-7 -108l136 377h137v-564z" />
    <glyph glyph-name="ecircumflex" unicode="&#xea;" horiz-adv-x="444" 
d="M178 0h-130v564h130v-153l-2 -71l125 224h142l-142 -227l138 -337h-145l-81 230l-35 -58v-172z" />
    <glyph glyph-name="ecircumflex" unicode="&#x43a;" horiz-adv-x="444" 
d="M178 0h-130v564h130v-153l-2 -71l125 224h142l-142 -227l138 -337h-145l-81 230l-35 -58v-172z" />
    <glyph glyph-name="edieresis" unicode="&#xeb;" 
d="M91 564h348v-564h-130v464h-97v-227q0 -127 -27 -176q-41 -74 -162 -74v113q47 0 59 33q9 25 9 115v316z" />
    <glyph glyph-name="edieresis" unicode="&#x43b;" 
d="M91 564h348v-564h-130v464h-97v-227q0 -127 -27 -176q-41 -74 -162 -74v113q47 0 59 33q9 25 9 115v316z" />
    <glyph glyph-name="igrave" unicode="&#xec;" horiz-adv-x="703" 
d="M61 0v564h202l72 -322q5 -22 8.5 -49.5t6.5 -60.5q8 55 17 110l76 322h199v-564h-132l6 356l6 141l-115 -497h-112l-111 497l2 -141l7 -356h-132z" />
    <glyph glyph-name="igrave" unicode="&#x43c;" horiz-adv-x="703" 
d="M61 0v564h202l72 -322q5 -22 8.5 -49.5t6.5 -60.5q8 55 17 110l76 322h199v-564h-132l6 356l6 141l-115 -497h-112l-111 497l2 -141l7 -356h-132z" />
    <glyph glyph-name="iacute" unicode="&#xed;" 
d="M439 0h-130v243h-118v-243h-130v564h130v-221h118v221h130v-564z" />
    <glyph glyph-name="iacute" unicode="&#x43d;" 
d="M439 0h-130v243h-118v-243h-130v564h130v-221h118v221h130v-564z" />
    <glyph glyph-name="icircumflex" unicode="&#xee;" 
d="M183 372v-188q0 -47 4 -61q11 -38 65 -38q42 0 55 23q10 18 10 76v188q0 67 -15 87t-50 20q-46 0 -60 -33q-9 -21 -9 -74zM252 -15q-122 0 -163 65q-36 57 -36 212q0 119 8 168q12 76 52 110q45 39 139 39q92 0 136 -39q39 -34 51 -110q8 -50 8 -168q0 -157 -34 -212
q-40 -65 -161 -65z" />
    <glyph glyph-name="icircumflex" unicode="&#x43e;" 
d="M183 372v-188q0 -47 4 -61q11 -38 65 -38q42 0 55 23q10 18 10 76v188q0 67 -15 87t-50 20q-46 0 -60 -33q-9 -21 -9 -74zM252 -15q-122 0 -163 65q-36 57 -36 212q0 119 8 168q12 76 52 110q45 39 139 39q92 0 136 -39q39 -34 51 -110q8 -50 8 -168q0 -157 -34 -212
q-40 -65 -161 -65z" />
    <glyph glyph-name="idieresis" unicode="&#xef;" 
d="M439 0h-130v464h-118v-464h-130v564h378v-564z" />
    <glyph glyph-name="idieresis" unicode="&#x43f;" 
d="M439 0h-130v464h-118v-464h-130v564h378v-564z" />
    <glyph glyph-name="eth" unicode="&#xf0;" 
d="M188 354v-169q0 -100 63 -100q28 0 42.5 27t14.5 70v188q0 58 -6 75q-12 34 -53 34q-40 0 -53 -45q-8 -27 -8 -80zM188 564v-59q19 39 46.5 56.5t68.5 17.5q67 0 99 -42q36 -48 36 -160v-204q0 -81 -26 -128q-33 -60 -109 -60q-40 0 -68 16t-51 57l-2 -247h-124v753h130z
" />
    <glyph glyph-name="eth" unicode="&#x440;" 
d="M188 354v-169q0 -100 63 -100q28 0 42.5 27t14.5 70v188q0 58 -6 75q-12 34 -53 34q-40 0 -53 -45q-8 -27 -8 -80zM188 564v-59q19 39 46.5 56.5t68.5 17.5q67 0 99 -42q36 -48 36 -160v-204q0 -81 -26 -128q-33 -60 -109 -60q-40 0 -68 16t-51 57l-2 -247h-124v753h130z
" />
    <glyph glyph-name="ntilde" unicode="&#xf1;" horiz-adv-x="444" 
d="M402 368h-130v63q0 48 -45 48q-33 0 -43 -37q-6 -23 -6 -89v-133q0 -83 9 -107t40 -28q27 0 36 24q5 13 9 59v52h130v-52q0 -92 -41.5 -137.5t-136.5 -45.5q-88 0 -132 50.5t-44 160.5v183q0 110 51 159q43 41 125 41q92 0 138 -51q40 -44 40 -115v-45z" />
    <glyph glyph-name="ntilde" unicode="&#x441;" horiz-adv-x="444" 
d="M402 368h-130v63q0 48 -45 48q-33 0 -43 -37q-6 -23 -6 -89v-133q0 -83 9 -107t40 -28q27 0 36 24q5 13 9 59v52h130v-52q0 -92 -41.5 -137.5t-136.5 -45.5q-88 0 -132 50.5t-44 160.5v183q0 110 51 159q43 41 125 41q92 0 138 -51q40 -44 40 -115v-45z" />
    <glyph glyph-name="ograve" unicode="&#xf2;" horiz-adv-x="407" 
d="M18 564h372v-100h-121v-464h-130v464h-121v100z" />
    <glyph glyph-name="ograve" unicode="&#x442;" horiz-adv-x="407" 
d="M18 564h372v-100h-121v-464h-130v464h-121v100z" />
    <glyph glyph-name="oacute" unicode="&#xf3;" horiz-adv-x="444" 
d="M5 564h137l57 -299q2 -11 8 -57.5t11 -92.5q1 34 9.5 78t12.5 68l57 303h132l-137 -572q-29 -112 -43 -135q-32 -52 -113 -52q-22 0 -60 5v101q21 -2 34 -2q20 0 29 4q14 7 14 23q0 14 -3.5 32t-8.5 40z" />
    <glyph glyph-name="oacute" unicode="&#x443;" horiz-adv-x="444" 
d="M5 564h137l57 -299q2 -11 8 -57.5t11 -92.5q1 34 9.5 78t12.5 68l57 303h132l-137 -572q-29 -112 -43 -135q-32 -52 -113 -52q-22 0 -60 5v101q21 -2 34 -2q20 0 29 4q14 7 14 23q0 14 -3.5 32t-8.5 40z" />
    <glyph glyph-name="ocircumflex" unicode="&#xf4;" horiz-adv-x="740" 
d="M307 185v169q0 55 -7 79q-13 46 -54 46q-40 0 -52 -33q-7 -20 -7 -76v-188q0 -44 14 -70.5t43 -26.5q63 0 63 100zM557 182v188q0 58 -6 75q-12 34 -53 34q-40 0 -53 -45q-8 -27 -8 -80v-169q0 -100 63 -100q28 0 42.5 27t14.5 70zM437 750v-245q19 39 46.5 56.5
t68.5 17.5q67 0 99 -42q36 -48 36 -160v-204q0 -81 -26 -128q-33 -60 -109 -60q-40 0 -68 16t-51 57l-2 -247h-118v247q-25 -41 -52.5 -57t-68.5 -16q-75 0 -109 60q-26 46 -26 128v204q0 111 36 159q32 43 99 43q42 0 68.5 -16.5t44.5 -57.5l2 245h130z" />
    <glyph glyph-name="ocircumflex" unicode="&#x444;" horiz-adv-x="740" 
d="M307 185v169q0 55 -7 79q-13 46 -54 46q-40 0 -52 -33q-7 -20 -7 -76v-188q0 -44 14 -70.5t43 -26.5q63 0 63 100zM557 182v188q0 58 -6 75q-12 34 -53 34q-40 0 -53 -45q-8 -27 -8 -80v-169q0 -100 63 -100q28 0 42.5 27t14.5 70zM437 750v-245q19 39 46.5 56.5
t68.5 17.5q67 0 99 -42q36 -48 36 -160v-204q0 -81 -26 -128q-33 -60 -109 -60q-40 0 -68 16t-51 57l-2 -247h-118v247q-25 -41 -52.5 -57t-68.5 -16q-75 0 -109 60q-26 46 -26 128v204q0 111 36 159q32 43 99 43q42 0 68.5 -16.5t44.5 -57.5l2 245h130z" />
    <glyph glyph-name="otilde" unicode="&#xf5;" horiz-adv-x="444" 
d="M157 288l-142 276h153l43 -102q5 -17 7 -25q6 -21 7 -26l18 53l46 100h144l-141 -273l144 -291h-146l-39 91q-11 25 -17 43t-9 40q-9 -41 -31 -90l-37 -84h-149z" />
    <glyph glyph-name="otilde" unicode="&#x445;" horiz-adv-x="444" 
d="M157 288l-142 276h153l43 -102q5 -17 7 -25q6 -21 7 -26l18 53l46 100h144l-141 -273l144 -291h-146l-39 91q-11 25 -17 43t-9 40q-9 -41 -31 -90l-37 -84h-149z" />
    <glyph glyph-name="odieresis" unicode="&#xf6;" 
d="M309 100v464h130v-464h35v-208h-120v108h-293v564h130v-464h118z" />
    <glyph glyph-name="odieresis" unicode="&#x446;" 
d="M309 100v464h130v-464h35v-208h-120v108h-293v564h130v-464h118z" />
    <glyph glyph-name="divide" unicode="&#xf7;" horiz-adv-x="481" 
d="M420 0h-130v243q-39 -14 -49 -17q-37 -11 -65 -11q-56 0 -92 38t-36 100v211h130v-204q0 -20 14 -29t35 -9q19 0 45 13q8 4 18 10v219h130v-564z" />
    <glyph glyph-name="divide" unicode="&#x447;" horiz-adv-x="481" 
d="M420 0h-130v243q-39 -14 -49 -17q-37 -11 -65 -11q-56 0 -92 38t-36 100v211h130v-204q0 -20 14 -29t35 -9q19 0 45 13q8 4 18 10v219h130v-564z" />
    <glyph glyph-name="oslash" unicode="&#xf8;" horiz-adv-x="684" 
d="M622 0h-561v564h130v-464h86v464h129v-464h86v464h130v-564z" />
    <glyph glyph-name="oslash" unicode="&#x448;" horiz-adv-x="684" 
d="M622 0h-561v564h130v-464h86v464h129v-464h86v464h130v-564z" />
    <glyph glyph-name="ugrave" unicode="&#xf9;" horiz-adv-x="684" 
d="M277 564h129v-464h86v464h130v-464h35v-208h-120v108h-476v564h130v-464h86v464z" />
    <glyph glyph-name="ugrave" unicode="&#x449;" horiz-adv-x="684" 
d="M277 564h129v-464h86v464h130v-464h35v-208h-120v108h-476v564h130v-464h86v464z" />
    <glyph glyph-name="uacute" unicode="&#xfa;" horiz-adv-x="536" 
d="M259 96q58 0 79 11q30 16 30 66q0 46 -29 62q-22 12 -71 12h-22v-151h13zM116 461h-94v103h224v-219h33q110 0 158 -32q60 -40 60 -143q0 -98 -55 -137q-26 -18 -67.5 -25.5t-85.5 -7.5h-173v461z" />
    <glyph glyph-name="uacute" unicode="&#x44a;" horiz-adv-x="536" 
d="M259 96q58 0 79 11q30 16 30 66q0 46 -29 62q-22 12 -71 12h-22v-151h13zM116 461h-94v103h224v-219h33q110 0 158 -32q60 -40 60 -143q0 -98 -55 -137q-26 -18 -67.5 -25.5t-85.5 -7.5h-173v461z" />
    <glyph glyph-name="ucircumflex" unicode="&#xfb;" horiz-adv-x="684" 
d="M623 0h-130v564h130v-564zM204 96q58 0 79 11q30 16 30 66q0 46 -29 62q-22 12 -71 12h-22v-151h13zM61 564h130v-219h33q110 0 158 -32q60 -40 60 -143q0 -98 -55 -137q-26 -18 -67.5 -25.5t-85.5 -7.5h-173v564z" />
    <glyph glyph-name="ucircumflex" unicode="&#x44b;" horiz-adv-x="684" 
d="M623 0h-130v564h130v-564zM204 96q58 0 79 11q30 16 30 66q0 46 -29 62q-22 12 -71 12h-22v-151h13zM61 564h130v-219h33q110 0 158 -32q60 -40 60 -143q0 -98 -55 -137q-26 -18 -67.5 -25.5t-85.5 -7.5h-173v564z" />
    <glyph glyph-name="udieresis" unicode="&#xfc;" horiz-adv-x="463" 
d="M204 96q58 0 79 11q30 16 30 66q0 46 -29 62q-22 12 -71 12h-22v-151h13zM61 564h130v-219h33q110 0 158 -32q60 -40 60 -143q0 -98 -55 -137q-26 -18 -67.5 -25.5t-85.5 -7.5h-173v564z" />
    <glyph glyph-name="udieresis" unicode="&#x44c;" horiz-adv-x="463" 
d="M204 96q58 0 79 11q30 16 30 66q0 46 -29 62q-22 12 -71 12h-22v-151h13zM61 564h130v-219h33q110 0 158 -32q60 -40 60 -143q0 -98 -55 -137q-26 -18 -67.5 -25.5t-85.5 -7.5h-173v564z" />
    <glyph glyph-name="yacute" unicode="&#xfd;" horiz-adv-x="481" 
d="M42 186h127q0 -46 11 -69q15 -32 52 -32q41 0 57 35q11 24 11 71v50h-120v99h120v33q0 63 -16 84.5t-46 21.5q-25 0 -39.5 -15.5t-19.5 -42.5l-2 -27h-127q0 87 49 136t144 49t143 -61q44 -56 44 -159v-165q0 -98 -46.5 -153.5t-140.5 -55.5q-99 0 -150 49t-51 152z" />
    <glyph glyph-name="yacute" unicode="&#x44d;" horiz-adv-x="481" 
d="M42 186h127q0 -46 11 -69q15 -32 52 -32q41 0 57 35q11 24 11 71v50h-120v99h120v33q0 63 -16 84.5t-46 21.5q-25 0 -39.5 -15.5t-19.5 -42.5l-2 -27h-127q0 87 49 136t144 49t143 -61q44 -56 44 -159v-165q0 -98 -46.5 -153.5t-140.5 -55.5q-99 0 -150 49t-51 152z" />
    <glyph glyph-name="thorn" unicode="&#xfe;" horiz-adv-x="684" 
d="M382 372v-188q0 -48 3 -61q9 -38 59 -38q39 0 50 23q8 17 8 76v188q0 67 -14 87t-44 20q-44 0 -56 -33q-6 -17 -6 -74zM252 243h-61v-243h-130v564h130v-221h62q0 124 32 173q41 63 159 63q91 0 134 -39q38 -34 48 -110q6 -44 6 -168q0 -158 -32 -212q-38 -65 -156 -65
q-117 0 -157 60q-35 52 -35 198z" />
    <glyph glyph-name="thorn" unicode="&#x44e;" horiz-adv-x="684" 
d="M382 372v-188q0 -48 3 -61q9 -38 59 -38q39 0 50 23q8 17 8 76v188q0 67 -14 87t-44 20q-44 0 -56 -33q-6 -17 -6 -74zM252 243h-61v-243h-130v564h130v-221h62q0 124 32 173q41 63 159 63q91 0 134 -39q38 -34 48 -110q6 -44 6 -168q0 -158 -32 -212q-38 -65 -156 -65
q-117 0 -157 60q-35 52 -35 198z" />
    <glyph glyph-name="ydieresis" unicode="&#xff;" horiz-adv-x="481" 
d="M422 0h-129v230h-32q-47 0 -61 -42q-6 -18 -8.5 -47.5t-2.5 -67.5q0 -18 -1.5 -29.5t-6.5 -28.5l-4 -15h-141v7q8 5 14 22.5t9.5 69.5t3.5 91q0 22 7.5 39t24 31t43.5 20q-43 16 -61.5 49.5t-18.5 80.5q0 82 44.5 118t135.5 36h184v-564zM293 325v143h-31
q-34 0 -55 -16.5t-21 -55.5q0 -36 21 -55q18 -16 45 -16h41z" />
    <glyph glyph-name="ydieresis" unicode="&#x44f;" horiz-adv-x="481" 
d="M422 0h-129v230h-32q-47 0 -61 -42q-6 -18 -8.5 -47.5t-2.5 -67.5q0 -18 -1.5 -29.5t-6.5 -28.5l-4 -15h-141v7q8 5 14 22.5t9.5 69.5t3.5 91q0 22 7.5 39t24 31t43.5 20q-43 16 -61.5 49.5t-18.5 80.5q0 82 44.5 118t135.5 36h184v-564zM293 325v143h-31
q-34 0 -55 -16.5t-21 -55.5q0 -36 21 -55q18 -16 45 -16h41z" />
    </font>
</defs>
</svg>
